<svg xmlns="http://www.w3.org/2000/svg" width="250" height="100.5" viewBox="0 0 250 100.5">
  <g id="icons_spite_darkbigiconcolored" transform="translate(0 0.5)">
    <g id="_50Color" data-name="50Color" transform="translate(0 50)">
      <g id="Close" transform="translate(50)">
        <rect id="icon_bg" width="50" height="50" fill="#fff" opacity="0"/>
        <g id="X" transform="translate(-78.664 11.336)">
          <path id="X-2" data-name="X" d="M39.5,15A24.5,24.5,0,1,0,64,39.5,24.526,24.526,0,0,0,39.5,15Zm9.678,31.122a2.162,2.162,0,0,1,0,3.056,2.157,2.157,0,0,1-3.056,0L39.5,42.556l-6.622,6.622a2.161,2.161,0,1,1-3.056-3.056L36.444,39.5l-6.622-6.622a2.161,2.161,0,1,1,3.056-3.056L39.5,36.444l6.622-6.622a2.161,2.161,0,1,1,3.056,3.056L42.556,39.5Z" transform="translate(64.164 -25.836)" fill="#e84a55" opacity="0.203"/>
          <path id="X-3" data-name="X" d="M39.5,15A24.5,24.5,0,1,0,64,39.5,24.526,24.526,0,0,0,39.5,15Zm9.678,31.122a2.162,2.162,0,0,1,0,3.056,2.157,2.157,0,0,1-3.056,0L39.5,42.556l-6.622,6.622a2.161,2.161,0,1,1-3.056-3.056L36.444,39.5l-6.622-6.622a2.161,2.161,0,1,1,3.056-3.056L39.5,36.444l6.622-6.622a2.161,2.161,0,1,1,3.056,3.056L42.556,39.5Z" transform="translate(64.164 -25.836)" fill="none" stroke="#e84a55" stroke-width="1"/>
        </g>
      </g>
      <g id="Check">
        <rect id="icon_bg-2" data-name="icon_bg" width="50" height="50" transform="translate(0.5)" fill="#fff" opacity="0"/>
        <g id="Okey" transform="translate(-133.5 -9.5)">
          <path id="Okey_icon" d="M39.5,15A24.5,24.5,0,1,0,64,39.5,24.537,24.537,0,0,0,39.5,15ZM51.291,33.457,36.972,47.939a1.691,1.691,0,0,1-1.2.49,1.665,1.665,0,0,1-1.089-.382l-6.86-5.771A1.7,1.7,0,0,1,30,39.663l5.662,4.791L48.9,31.061a1.694,1.694,0,0,1,2.4,2.4Z" transform="translate(119 -5)" fill="#15b57e" opacity="0.203"/>
          <path id="Okey_icon-2" data-name="Okey_icon" d="M39.5,15A24.5,24.5,0,1,0,64,39.5,24.537,24.537,0,0,0,39.5,15ZM51.291,33.457,36.972,47.939a1.691,1.691,0,0,1-1.2.49,1.665,1.665,0,0,1-1.089-.382l-6.86-5.771A1.7,1.7,0,0,1,30,39.663l5.662,4.791L48.9,31.061a1.694,1.694,0,0,1,2.4,2.4Z" transform="translate(119 -5)" fill="none" stroke="#15b57e" stroke-width="1" opacity="0.998"/>
        </g>
      </g>
    </g>
    <g id="_50Gray" data-name="50Gray">
      <g id="UserAdd" transform="translate(200)">
        <g id="icon_bg-3" data-name="icon_bg" fill="rgba(42,53,83,0)" stroke="#2a3553" stroke-width="1">
          <rect width="50" height="50" rx="25" stroke="none"/>
          <rect x="0.5" y="0.5" width="49" height="49" rx="24.5" fill="none"/>
        </g>
        <g id="UserAdd-2" data-name="UserAdd" transform="translate(0 -1)">
          <line id="Line" x2="7.334" transform="translate(39 17.333) rotate(90)" fill="none" stroke="#687ca2" stroke-linecap="round" stroke-width="1.5"/>
          <line id="Line-2" data-name="Line" y2="7.334" transform="translate(42.667 21) rotate(90)" fill="none" stroke="#687ca2" stroke-linecap="round" stroke-width="1.5"/>
          <path id="Path_9644" data-name="Path 9644" d="M-24.095,10.1a12.942,12.942,0,0,0-8.49-8.111A7.583,7.583,0,0,0-28.7-4.632a7.59,7.59,0,0,0-7.589-7.59,7.59,7.59,0,0,0-7.59,7.59,7.582,7.582,0,0,0,3.888,6.623A12.94,12.94,0,0,0-48.477,10.1a.758.758,0,0,0,.466.967.76.76,0,0,0,.967-.466A11.414,11.414,0,0,1-36.29,2.958h.007A11.412,11.412,0,0,1-25.529,10.6a.76.76,0,0,0,.717.509.756.756,0,0,0,.25-.043A.76.76,0,0,0-24.095,10.1ZM-42.358-4.632A6.072,6.072,0,0,1-36.286-10.7a6.072,6.072,0,0,1,6.071,6.072A6.071,6.071,0,0,1-36.283,1.44h-.007A6.071,6.071,0,0,1-42.358-4.632Z" transform="translate(61.52 25.222)" fill="#687ca2"/>
        </g>
      </g>
      <g id="User" transform="translate(150)">
        <g id="icon_bg-4" data-name="icon_bg" fill="rgba(42,53,83,0)" stroke="#2a3553" stroke-width="1">
          <rect width="50" height="50" rx="25" stroke="none"/>
          <rect x="0.5" y="0.5" width="49" height="49" rx="24.5" fill="none"/>
        </g>
        <g id="UserAdd-3" data-name="UserAdd" transform="translate(0 -1)">
          <path id="Path_9644-2" data-name="Path 9644" d="M-24.095,10.1a12.942,12.942,0,0,0-8.49-8.111A7.583,7.583,0,0,0-28.7-4.632a7.59,7.59,0,0,0-7.589-7.59,7.59,7.59,0,0,0-7.59,7.59,7.582,7.582,0,0,0,3.888,6.623A12.94,12.94,0,0,0-48.477,10.1a.758.758,0,0,0,.466.967.76.76,0,0,0,.967-.466A11.414,11.414,0,0,1-36.29,2.958h.007A11.412,11.412,0,0,1-25.529,10.6a.76.76,0,0,0,.717.509.756.756,0,0,0,.25-.043A.76.76,0,0,0-24.095,10.1ZM-42.358-4.632A6.072,6.072,0,0,1-36.286-10.7a6.072,6.072,0,0,1,6.071,6.072A6.071,6.071,0,0,1-36.283,1.44h-.007A6.071,6.071,0,0,1-42.358-4.632Z" transform="translate(61.52 25.222)" fill="#687ca2"/>
        </g>
      </g>
      <g id="Delete" transform="translate(100)">
        <rect id="icon_bg-5" data-name="icon_bg" width="50" height="50" fill="#fff" opacity="0"/>
        <path id="Delete-2" data-name="Delete" d="M-1999-4964a25,25,0,0,1,25-25,25.014,25.014,0,0,1,25,25,25,25,0,0,1-25,25A25,25,0,0,1-1999-4964Zm12.951-8.071v20.782a5.461,5.461,0,0,0,1.084,3.132,2.964,2.964,0,0,0,2.47,1.326h18.313a2.961,2.961,0,0,0,2.47-1.326,5.148,5.148,0,0,0,1.024-3.132v-20.782h2.109a.534.534,0,0,0,.084,0,.621.621,0,0,0,.578-.662h-.119v-1.386c0-.029,0-.056,0-.085a.624.624,0,0,0-.665-.579h-6.806l-1.506-3.673a3.68,3.68,0,0,0-1.2-1.385,2.789,2.789,0,0,0-1.748-.6h-6.987a3.778,3.778,0,0,0-1.748.6,3.309,3.309,0,0,0-1.2,1.385l-1.506,3.673h-6.747a.687.687,0,0,0-.084,0,.621.621,0,0,0-.578.662v1.386c0,.027,0,.055,0,.084a.624.624,0,0,0,.662.58Zm3.725,22.314c-.06,0-.119-.059-.238-.178a2.644,2.644,0,0,1-.294-.592,1.854,1.854,0,0,1-.178-.828v-20.471h19.347v20.471a2.049,2.049,0,0,1-.178.828,1.789,1.789,0,0,1-.294.592c-.118.118-.178.178-.238.178Zm8.147-17.868a.613.613,0,0,0-.572.651v12.428c0,.029,0,.055,0,.084a.613.613,0,0,0,.652.567h1.357a.777.777,0,0,0,.083,0,.61.61,0,0,0,.568-.651v-12.428a.418.418,0,0,0,0-.08.613.613,0,0,0-.651-.571h-1.357l-.04,0Zm5.5,0a.613.613,0,0,0-.572.651v12.428c0,.027,0,.054,0,.081a.613.613,0,0,0,.65.57h1.362a.755.755,0,0,0,.081,0,.611.611,0,0,0,.568-.651v-12.428c0-.026,0-.053,0-.078a.612.612,0,0,0-.65-.573h-1.362l-.039,0Zm-11.061,0a.612.612,0,0,0-.572.651l0,12.428a.449.449,0,0,0,0,.081.611.611,0,0,0,.65.57h1.361a.755.755,0,0,0,.081,0,.612.612,0,0,0,.57-.651v-12.428c0-.026,0-.053,0-.078a.612.612,0,0,0-.651-.573h-1.359l-.039,0Zm1.489-7.316,1.067-2.485a.591.591,0,0,1,.412-.237h6.8a1.253,1.253,0,0,1,.357.237l1,2.485Z" transform="translate(1999 4989)" fill="#2a3553" stroke="rgba(0,0,0,0)" stroke-miterlimit="10" stroke-width="1"/>
      </g>
      <g id="Close-2" data-name="Close" transform="translate(50)">
        <rect id="icon_bg-6" data-name="icon_bg" width="50" height="50" fill="#fff" opacity="0"/>
        <path id="Close-3" data-name="Close" d="M40,15A25,25,0,1,0,65,40,25.027,25.027,0,0,0,40,15Zm9.875,31.757a2.206,2.206,0,0,1,0,3.118,2.2,2.2,0,0,1-3.118,0L40,43.118l-6.757,6.757a2.2,2.2,0,0,1-3.118-3.118L36.882,40l-6.757-6.757a2.2,2.2,0,0,1,3.118-3.118L40,36.882l6.757-6.757a2.2,2.2,0,0,1,3.118,3.118L43.118,40Z" transform="translate(-15 -15)" fill="#2c3551"/>
      </g>
      <g id="Check-2" data-name="Check">
        <rect id="icon_bg-7" data-name="icon_bg" width="50" height="50" fill="#fff" opacity="0"/>
        <path id="Okey_icon-3" data-name="Okey_icon" d="M40,15A25,25,0,1,0,65,40,25.038,25.038,0,0,0,40,15ZM52.031,33.834,37.421,48.611a1.726,1.726,0,0,1-1.222.5,1.7,1.7,0,0,1-1.111-.389l-7-5.889a1.736,1.736,0,0,1,2.222-2.667l5.778,4.889,13.5-13.667a1.729,1.729,0,0,1,2.444,2.445Z" transform="translate(-15 -15)" fill="#2c3551"/>
      </g>
    </g>
  </g>
</svg>
