<svg id="icons_spite_14_smalliconcolored" xmlns="http://www.w3.org/2000/svg" width="42" height="14" viewBox="0 0 42 14">
  <g id="Detail" transform="translate(28)">
    <rect id="icon_bg" width="14" height="14" fill="#fff" opacity="0"/>
    <path id="Detail-2" data-name="Detail" d="M-126.315-60.739l-1.489-1.493a2.527,2.527,0,0,1-1.287.363A2.686,2.686,0,0,1-131.72-64.6a2.686,2.686,0,0,1,2.629-2.733,2.686,2.686,0,0,1,2.63,2.733,2.782,2.782,0,0,1-.6,1.723l1.417,1.422a.515.515,0,0,1,.012.707.473.473,0,0,1-.346.151A.474.474,0,0,1-126.315-60.739Zm-4.443-3.863a1.7,1.7,0,0,0,1.668,1.734,1.609,1.609,0,0,0,.994-.35v0l.006,0a1.749,1.749,0,0,0,.667-1.379,1.7,1.7,0,0,0-1.669-1.733A1.7,1.7,0,0,0-130.759-64.6Zm-5.26,3.674a.491.491,0,0,1-.481-.5V-71a.49.49,0,0,1,.481-.5h9.21a.49.49,0,0,1,.481.5v3.191a.49.49,0,0,1-.481.5.49.49,0,0,1-.481-.5V-70.5h-8.248v8.573h3.815a.491.491,0,0,1,.481.5.491.491,0,0,1-.481.5Zm1.843-1.912a.491.491,0,0,1-.481-.5.491.491,0,0,1,.481-.5h1.228a.49.49,0,0,1,.48.5.49.49,0,0,1-.48.5Zm0-1.917a.491.491,0,0,1-.481-.5.491.491,0,0,1,.481-.5h1.228a.49.49,0,0,1,.48.5.49.49,0,0,1-.48.5Zm0-1.915a.491.491,0,0,1-.481-.5.491.491,0,0,1,.481-.5h1.842a.491.491,0,0,1,.48.5.491.491,0,0,1-.48.5Zm0-1.915a.49.49,0,0,1-.481-.5.491.491,0,0,1,.481-.5h5.525a.491.491,0,0,1,.481.5.49.49,0,0,1-.481.5Z" transform="translate(138.5 73.9)" fill="#687ca2" stroke="rgba(0,0,0,0)" stroke-miterlimit="10" stroke-width="1"/>
  </g>
  <g id="Delete" transform="translate(14)">
    <rect id="icon_bg-2" data-name="icon_bg" width="14" height="14" fill="#fff" opacity="0"/>
    <path id="Delete-2" data-name="Delete" d="M1.977,12a.522.522,0,0,1-.5-.538V2.489H.5A.521.521,0,0,1,0,1.952a.522.522,0,0,1,.5-.538H3.887V.538A.522.522,0,0,1,4.391,0H7.61a.522.522,0,0,1,.5.538v.876H11.5a.522.522,0,0,1,.5.538.521.521,0,0,1-.5.537h-.972v8.973a.521.521,0,0,1-.5.538Zm.5-1.075H9.517V2.489H2.481ZM4.9,1.414h2.21V1.076H4.9ZM7.54,8.831l-1.53-1.5-1.53,1.5a.549.549,0,1,1-.769-.785L5.225,6.565,3.71,5.081a.55.55,0,0,1,.77-.787l1.531,1.5,1.53-1.5a.551.551,0,0,1,.77.787L6.8,6.563,8.311,8.046a.55.55,0,1,1-.77.785Z" transform="translate(1 1)" fill="#e84a55" stroke="rgba(0,0,0,0)" stroke-miterlimit="10" stroke-width="1"/>
  </g>
  <g id="Edit">
    <rect id="icon_bg-3" data-name="icon_bg" width="14" height="14" fill="#fff" opacity="0"/>
    <path id="Edit-2" data-name="Edit" d="M.5,12a.5.5,0,0,1-.5-.492V1.991A.5.5,0,0,1,.5,1.5H5.786a.492.492,0,1,1,0,.983H1.006v8.535H9.733V7.158a.5.5,0,0,1,1.005,0v4.351a.5.5,0,0,1-.5.492ZM2.149,9.6V7.327L9.52.215a.636.636,0,0,1,.953,0L11.78,1.521a.641.641,0,0,1,.008.959L4.385,9.6Zm1-1.852V8.6h.832L8.9,3.87l-.85-.848ZM8.771,2.327l.851.85L10.844,2l-.851-.851Z" transform="translate(1 1)" fill="#388cff" stroke="rgba(0,0,0,0)" stroke-miterlimit="10" stroke-width="1"/>
  </g>
</svg>
