<svg id="icons_spite_smalliconcolored" xmlns="http://www.w3.org/2000/svg" width="42" height="30" viewBox="0 0 42 30">
  <g id="_16" data-name="16" transform="translate(0 14)">
    <g id="Wallet">
      <rect id="icon_bg" width="16" height="16" fill="#fff" opacity="0"/>
      <path id="Wallet-2" data-name="Wallet" d="M-134.723-60h-.006A1.276,1.276,0,0,1-136-61.286v-9.435a1.3,1.3,0,0,1,.374-.907,1.285,1.285,0,0,1,.9-.374h10.273a1.285,1.285,0,0,1,.9.374,1.267,1.267,0,0,1,.373.894v.2a1.3,1.3,0,0,1,.794.37,1.279,1.279,0,0,1,.371.908v1.392a.564.564,0,0,1,.388.567l0,4.022a.573.573,0,0,1-.4.57s0,.008,0,.012v1.4a1.3,1.3,0,0,1-.374.907,1.265,1.265,0,0,1-.9.375Zm-.418-11.133a.6.6,0,0,0-.173.42v9.437a.59.59,0,0,0,.589.59h11.433a.589.589,0,0,0,.418-.175.6.6,0,0,0,.174-.418v-1.4h-3.766A1.968,1.968,0,0,1-128.2-64.06a3.355,3.355,0,0,1,.01-2.471,1.944,1.944,0,0,1,1.69-1.347l3.8,0v-1.375a.592.592,0,0,0-.174-.42.582.582,0,0,0-.417-.173h-10.966a.346.346,0,0,1-.328-.327.346.346,0,0,1,.328-.364h10.388v-.191a.558.558,0,0,0-.172-.407.584.584,0,0,0-.418-.173h-10.269A.585.585,0,0,0-135.14-71.137Zm7.657,4.854a2.665,2.665,0,0,0-.009,1.975,1.226,1.226,0,0,0,1.061.876l4.06,0,0-3.7h-4.09A1.207,1.207,0,0,0-127.483-66.283Zm1.1,1a.936.936,0,0,1,.936-.936.936.936,0,0,1,.936.935h0a.936.936,0,0,1-.936.936A.936.936,0,0,1-126.387-65.283Zm.616,0a.32.32,0,0,0,.32.32h.01a.316.316,0,0,0,.311-.32.32.32,0,0,0-.32-.319A.32.32,0,0,0-125.771-65.284Z" transform="translate(136.997 74.003)" fill="#687ca2" stroke="rgba(0,0,0,0)" stroke-miterlimit="10" stroke-width="1"/>
    </g>
  </g>
  <g id="_14" data-name="14">
    <g id="Detail" transform="translate(28)">
      <rect id="icon_bg-2" data-name="icon_bg" width="14" height="14" fill="#fff" opacity="0"/>
      <path id="Detail-2" data-name="Detail" d="M-126.315-60.739l-1.489-1.493a2.527,2.527,0,0,1-1.287.363A2.686,2.686,0,0,1-131.72-64.6a2.686,2.686,0,0,1,2.629-2.733,2.686,2.686,0,0,1,2.63,2.733,2.782,2.782,0,0,1-.6,1.723l1.417,1.422a.515.515,0,0,1,.012.707.473.473,0,0,1-.346.151A.474.474,0,0,1-126.315-60.739Zm-4.443-3.863a1.7,1.7,0,0,0,1.668,1.734,1.609,1.609,0,0,0,.994-.35v0l.006,0a1.749,1.749,0,0,0,.667-1.379,1.7,1.7,0,0,0-1.669-1.733A1.7,1.7,0,0,0-130.759-64.6Zm-5.26,3.674a.491.491,0,0,1-.481-.5V-71a.49.49,0,0,1,.481-.5h9.21a.49.49,0,0,1,.481.5v3.191a.49.49,0,0,1-.481.5.49.49,0,0,1-.481-.5V-70.5h-8.248v8.573h3.815a.491.491,0,0,1,.481.5.491.491,0,0,1-.481.5Zm1.843-1.912a.491.491,0,0,1-.481-.5.491.491,0,0,1,.481-.5h1.228a.49.49,0,0,1,.48.5.49.49,0,0,1-.48.5Zm0-1.917a.491.491,0,0,1-.481-.5.491.491,0,0,1,.481-.5h1.228a.49.49,0,0,1,.48.5.49.49,0,0,1-.48.5Zm0-1.915a.491.491,0,0,1-.481-.5.491.491,0,0,1,.481-.5h1.842a.491.491,0,0,1,.48.5.491.491,0,0,1-.48.5Zm0-1.915a.49.49,0,0,1-.481-.5.491.491,0,0,1,.481-.5h5.525a.491.491,0,0,1,.481.5.49.49,0,0,1-.481.5Z" transform="translate(138.5 73.9)" fill="#687ca2" stroke="rgba(0,0,0,0)" stroke-miterlimit="10" stroke-width="1"/>
    </g>
    <g id="Delete" transform="translate(14)">
      <rect id="icon_bg-3" data-name="icon_bg" width="14" height="14" fill="#fff" opacity="0"/>
      <path id="Delete-2" data-name="Delete" d="M1.977,12a.522.522,0,0,1-.5-.538V2.489H.5A.521.521,0,0,1,0,1.952a.522.522,0,0,1,.5-.538H3.887V.538A.522.522,0,0,1,4.391,0H7.61a.522.522,0,0,1,.5.538v.876H11.5a.522.522,0,0,1,.5.538.521.521,0,0,1-.5.537h-.972v8.973a.521.521,0,0,1-.5.538Zm.5-1.075H9.517V2.489H2.481ZM4.9,1.414h2.21V1.076H4.9ZM7.54,8.831l-1.53-1.5-1.53,1.5a.549.549,0,1,1-.769-.785L5.225,6.565,3.71,5.081a.55.55,0,0,1,.77-.787l1.531,1.5,1.53-1.5a.551.551,0,0,1,.77.787L6.8,6.563,8.311,8.046a.55.55,0,1,1-.77.785Z" transform="translate(1 1)" fill="#e84a55" stroke="rgba(0,0,0,0)" stroke-miterlimit="10" stroke-width="1"/>
    </g>
    <g id="Edit">
      <rect id="icon_bg-4" data-name="icon_bg" width="14" height="14" fill="#fff" opacity="0"/>
      <path id="Edit-2" data-name="Edit" d="M.5,12a.5.5,0,0,1-.5-.492V1.991A.5.5,0,0,1,.5,1.5H5.786a.492.492,0,1,1,0,.983H1.006v8.535H9.733V7.158a.5.5,0,0,1,1.005,0v4.351a.5.5,0,0,1-.5.492ZM2.149,9.6V7.327L9.52.215a.636.636,0,0,1,.953,0L11.78,1.521a.641.641,0,0,1,.008.959L4.385,9.6Zm1-1.852V8.6h.832L8.9,3.87l-.85-.848ZM8.771,2.327l.851.85L10.844,2l-.851-.851Z" transform="translate(1 1)" fill="#388cff" stroke="rgba(0,0,0,0)" stroke-miterlimit="10" stroke-width="1"/>
    </g>
  </g>
</svg>
