<svg id="icons_spite_14_smalliconcolored" xmlns="http://www.w3.org/2000/svg" width="28" height="14" viewBox="0 0 28 14">
  <g id="Delete" transform="translate(8 -12)">
    <rect id="icon_bg" width="14" height="14" transform="translate(6 12)" fill="#fff" opacity="0"/>
    <path id="Delete-2" data-name="Delete" d="M-134.573-60.15a.522.522,0,0,1-.5-.538v-8.973h-.97a.521.521,0,0,1-.5-.537.522.522,0,0,1,.5-.538h3.383v-.876a.522.522,0,0,1,.5-.538h3.218a.522.522,0,0,1,.5.538v.876h3.382a.522.522,0,0,1,.5.538.521.521,0,0,1-.5.537h-.972v8.973a.521.521,0,0,1-.5.538Zm.5-1.076h7.036v-8.436h-7.036Zm2.414-9.511h2.21v-.338h-2.21Zm2.645,7.417-1.53-1.5-1.53,1.5a.544.544,0,0,1-.384.157.547.547,0,0,1-.392-.165.548.548,0,0,1,.008-.778l1.513-1.481-1.515-1.483a.55.55,0,0,1-.007-.779.551.551,0,0,1,.777-.008l1.531,1.5,1.53-1.5a.551.551,0,0,1,.777.008.551.551,0,0,1-.006.779l-1.515,1.481,1.515,1.483a.55.55,0,0,1,.006.778.545.545,0,0,1-.391.165A.547.547,0,0,1-129.01-63.319Z" transform="translate(143.55 85.15)" fill="#e84a55" stroke="rgba(0,0,0,0)" stroke-miterlimit="10" stroke-width="1"/>
  </g>
  <g id="Edit" transform="translate(-6 -12)">
    <rect id="icon_bg-2" data-name="icon_bg" width="14" height="14" transform="translate(6 12)" fill="#fff" opacity="0"/>
    <path id="Edit-2" data-name="Edit" d="M-136-60.1a.5.5,0,0,1-.5-.492v-9.517a.5.5,0,0,1,.5-.491h5.283a.5.5,0,0,1,.5.491.5.5,0,0,1-.5.491h-4.78v8.535h8.726v-3.859a.5.5,0,0,1,.5-.491.5.5,0,0,1,.5.491v4.351a.5.5,0,0,1-.5.492Zm1.646-2.4V-64.77l7.371-7.112a.636.636,0,0,1,.953,0l1.307,1.306a.641.641,0,0,1,.008.959l-7.4,7.123Zm1-1.852v.852h.832l4.919-4.733-.85-.848Zm5.621-5.423.851.85,1.223-1.177-.851-.85Z" transform="translate(143.5 85.097)" fill="#388cff" stroke="rgba(0,0,0,0)" stroke-miterlimit="10" stroke-width="1"/>
  </g>
</svg>
