<svg id="Unknown_Profile_Avatar_Icon" xmlns="http://www.w3.org/2000/svg" width="50" height="50" viewBox="0 0 50 50">
  <rect id="Rectangle_1" data-name="Rectangle 1" width="50" height="50" fill="#1c263f" opacity="0"/>
  <path id="Union_1" data-name="Union 1" d="M23.667,12.668h0v0h0v0Z" transform="translate(15.333 8.333)" fill="none" stroke="#687ca2" stroke-linecap="round" stroke-width="1.5"/>
  <path id="Path_9644" data-name="Path 9644" d="M-24.095,10.1a12.942,12.942,0,0,0-8.49-8.111A7.583,7.583,0,0,0-28.7-4.632a7.59,7.59,0,0,0-7.589-7.59,7.59,7.59,0,0,0-7.59,7.59,7.582,7.582,0,0,0,3.888,6.623A12.94,12.94,0,0,0-48.477,10.1a.758.758,0,0,0,.466.967.76.76,0,0,0,.967-.466A11.414,11.414,0,0,1-36.29,2.958h.007A11.412,11.412,0,0,1-25.529,10.6a.76.76,0,0,0,.717.509.756.756,0,0,0,.25-.043A.76.76,0,0,0-24.095,10.1ZM-42.358-4.632A6.072,6.072,0,0,1-36.286-10.7a6.072,6.072,0,0,1,6.071,6.072A6.071,6.071,0,0,1-36.283,1.44h-.007A6.071,6.071,0,0,1-42.358-4.632Z" transform="translate(61.52 25.222)" fill="#687ca2"/>
</svg>
