<svg id="Logo" xmlns="http://www.w3.org/2000/svg" xmlns:xlink="http://www.w3.org/1999/xlink" width="150.328" height="23.482" viewBox="0 0 150.328 23.482">
  <defs>
    <linearGradient id="linear-gradient" x1="0.042" y1="0.956" x2="0.906" y2="0.044" gradientUnits="objectBoundingBox">
      <stop offset="0" stop-color="#0a93eb"/>
      <stop offset="1" stop-color="#00387c"/>
    </linearGradient>
    <linearGradient id="linear-gradient-2" x1="0.945" y1="0.993" x2="0.084" y2="0.054" gradientUnits="objectBoundingBox">
      <stop offset="0" stop-color="#00387c"/>
      <stop offset="1" stop-color="#0a93eb"/>
    </linearGradient>
    <linearGradient id="linear-gradient-3" x1="0.112" y1="0.936" x2="0.973" y2="0.028" xlink:href="#linear-gradient-2"/>
    <linearGradient id="linear-gradient-4" x1="0.052" y1="0.004" x2="0.919" y2="0.949" xlink:href="#linear-gradient-2"/>
    <linearGradient id="linear-gradient-5" x1="0.029" y1="0.026" x2="0.945" y2="0.896" xlink:href="#linear-gradient"/>
    <linearGradient id="linear-gradient-6" x1="0.008" y1="0.944" x2="0.948" y2="0.082" xlink:href="#linear-gradient-2"/>
    <linearGradient id="linear-gradient-7" x1="0.039" y1="0.089" x2="0.959" y2="0.961" xlink:href="#linear-gradient-2"/>
    <linearGradient id="linear-gradient-8" x1="0.04" y1="0.929" x2="0.979" y2="0.068" xlink:href="#linear-gradient"/>
  </defs>
  <path id="Union_4" data-name="Union 4" d="M2492.99,10243.446a5.152,5.152,0,0,1-1.458-3.834v-9.333a5.155,5.155,0,0,1,1.458-3.831,5.87,5.87,0,0,1,7.708,0,5.124,5.124,0,0,1,1.471,3.831v9.333a5.121,5.121,0,0,1-1.471,3.834,5.861,5.861,0,0,1-7.708,0Zm2.334-15.013a2.5,2.5,0,0,0-.568,1.707v9.611a2.5,2.5,0,0,0,.568,1.709,1.912,1.912,0,0,0,1.512.653,1.944,1.944,0,0,0,1.527-.653,2.458,2.458,0,0,0,.584-1.709v-9.611a2.456,2.456,0,0,0-.584-1.707,1.944,1.944,0,0,0-1.527-.653A1.912,1.912,0,0,0,2495.325,10228.434ZM2390.06,10243.6a4.613,4.613,0,0,1-1.234-3.371v-10.652a4.529,4.529,0,0,1,1.234-3.329,4.919,4.919,0,0,1,6.546,0,4.529,4.529,0,0,1,1.234,3.329v.527a.3.3,0,0,1-.082.222.267.267,0,0,1-.2.085l-.915.054a.246.246,0,0,1-.278-.278v-.691a3.211,3.211,0,0,0-.83-2.316,2.919,2.919,0,0,0-2.219-.874,2.884,2.884,0,0,0-2.193.874,3.21,3.21,0,0,0-.831,2.316v10.846a3.264,3.264,0,0,0,.831,2.329,2.861,2.861,0,0,0,2.193.89,2.9,2.9,0,0,0,2.2-.89,3.23,3.23,0,0,0,.846-2.329v-.638a.246.246,0,0,1,.278-.278l.915.057a.245.245,0,0,1,.278.275v.473a4.613,4.613,0,0,1-1.234,3.371,4.873,4.873,0,0,1-6.546,0Zm96.7,1.069a.353.353,0,0,1-.363-.28l-2.36-7.973c-.036-.072-.082-.108-.139-.108h-1.471a.121.121,0,0,0-.139.137v7.891a.327.327,0,0,1-.1.236.319.319,0,0,1-.237.1h-2.556a.321.321,0,0,1-.234-.1.326.326,0,0,1-.1-.236v-18.777a.325.325,0,0,1,.1-.236.319.319,0,0,1,.234-.095h5.222a4.635,4.635,0,0,1,4.348,2.7,6.7,6.7,0,0,1,.625,2.96,6.25,6.25,0,0,1-.666,2.972,4.514,4.514,0,0,1-1.861,1.893c-.075.016-.1.069-.085.162l2.723,8.361a.279.279,0,0,1,.028.139c0,.165-.1.252-.306.252Zm-4.471-16.529v5.527a.123.123,0,0,0,.139.139h1.694a1.981,1.981,0,0,0,1.625-.776,3.276,3.276,0,0,0,.625-2.11,3.331,3.331,0,0,0-.625-2.124,1.973,1.973,0,0,0-1.625-.792h-1.694A.121.121,0,0,0,2482.284,10228.141Zm-15.609,16.529a.329.329,0,0,1-.332-.334v-18.8a.321.321,0,0,1,.1-.236.335.335,0,0,1,.236-.1h5.222a4.7,4.7,0,0,1,2.6.723,4.8,4.8,0,0,1,1.751,2.025,6.835,6.835,0,0,1,.625,2.973,5.954,5.954,0,0,1-1.322,4.028,4.374,4.374,0,0,1-3.486,1.525h-2.36a.125.125,0,0,0-.139.142v7.721a.329.329,0,0,1-.332.334Zm2.887-16.558v5.694a.123.123,0,0,0,.139.14h1.666a2,2,0,0,0,1.656-.792,3.391,3.391,0,0,0,.622-2.152,3.561,3.561,0,0,0-.622-2.206,1.989,1.989,0,0,0-1.656-.82H2469.7A.123.123,0,0,0,2469.562,10228.112Zm-11.855,16.529a.306.306,0,0,1-.306-.224l-3.134-7.878c-.018-.054-.046-.077-.085-.069a.124.124,0,0,0-.082.069l-3.163,7.878a.306.306,0,0,1-.306.224h-.969a.23.23,0,0,1-.224-.334l3.942-9.292a.143.143,0,0,0,0-.167l-3.942-9.295-.026-.11c0-.146.082-.222.25-.222h1a.307.307,0,0,1,.306.222l3.134,7.906c.018.057.046.085.082.085s.067-.028.085-.085l3.134-7.906a.307.307,0,0,1,.306-.222h.969a.242.242,0,0,1,.208.1.234.234,0,0,1,.016.234l-3.939,9.323a.224.224,0,0,0,0,.164l3.939,9.267.026.11c0,.149-.082.224-.25.224Zm-19.253,0a.246.246,0,0,1-.278-.277V10225.5a.246.246,0,0,1,.278-.278h7.878a.246.246,0,0,1,.278.278v.748a.245.245,0,0,1-.278.277h-6.574a.1.1,0,0,0-.111.111v7.518a.1.1,0,0,0,.111.11h4.217a.246.246,0,0,1,.278.277v.751a.245.245,0,0,1-.278.275h-4.217a.1.1,0,0,0-.111.113v7.544a.1.1,0,0,0,.111.11h6.574a.246.246,0,0,1,.278.277v.751a.246.246,0,0,1-.278.277Zm-12.593,0a.246.246,0,0,1-.278-.277v-18.921a.244.244,0,0,1,.278-.275h4.327a3.851,3.851,0,0,1,3.134,1.455,5.829,5.829,0,0,1,1.193,3.813,5.7,5.7,0,0,1-1.18,3.774,3.825,3.825,0,0,1-3.093,1.414h-3.078a.1.1,0,0,0-.113.11v8.629a.245.245,0,0,1-.275.277Zm1.19-18.031v7.683a.1.1,0,0,0,.113.11h2.857a2.626,2.626,0,0,0,2.19-1.082,4.554,4.554,0,0,0,.833-2.856,4.61,4.61,0,0,0-.833-2.885,2.626,2.626,0,0,0-2.19-1.083h-2.857A.1.1,0,0,0,2427.051,10226.61Zm-9.6,18.031a.246.246,0,0,1-.278-.277v-8.6a.226.226,0,0,0-.026-.139l-3.829-10.071-.028-.11c0-.146.082-.222.249-.222h.972a.324.324,0,0,1,.332.222l3,8.489a.092.092,0,0,0,.085.055.089.089,0,0,0,.082-.055l2.97-8.489a.322.322,0,0,1,.332-.222h.972a.243.243,0,0,1,.208.1.235.235,0,0,1,.013.234l-3.828,10.071a.219.219,0,0,0-.028.139v8.6a.246.246,0,0,1-.278.277Zm-7.6,0a.32.32,0,0,1-.332-.224l-3.052-8.793a.107.107,0,0,0-.11-.082h-2.746a.1.1,0,0,0-.113.11v8.711a.246.246,0,0,1-.278.277h-.915a.246.246,0,0,1-.278-.277V10225.5a.246.246,0,0,1,.278-.278h4.3a3.872,3.872,0,0,1,3.134,1.442,5.733,5.733,0,0,1,1.193,3.772,5.9,5.9,0,0,1-.8,3.162,4.063,4.063,0,0,1-2.191,1.777.1.1,0,0,0-.085.139l3.134,8.821.028.11c0,.129-.082.2-.249.2Zm-6.353-18v7.574a.1.1,0,0,0,.113.11h2.828a2.642,2.642,0,0,0,2.19-1.069,4.442,4.442,0,0,0,.833-2.815,4.5,4.5,0,0,0-.833-2.844,2.646,2.646,0,0,0-2.19-1.067h-2.828A.1.1,0,0,0,2403.5,10226.637Zm-20.222,18a.246.246,0,0,1-.278-.277V10225.5a.246.246,0,0,1,.278-.278h.915a.246.246,0,0,1,.278.278v18.864a.246.246,0,0,1-.278.277Z" transform="translate(-2352.341 -10223.17)" fill="#fff" stroke="rgba(0,0,0,0)" stroke-miterlimit="10" stroke-width="1"/>
  <g id="Symbol">
    <path id="Path" d="M782.729,555.157a.94.94,0,0,0-1.33,0l-5.148,5.15a.939.939,0,1,0,1.328,1.328l5.807-5.81a.009.009,0,0,0,0-.013Z" transform="translate(-771.597 -540.475)" fill="url(#linear-gradient)"/>
    <path id="Path-2" data-name="Path" d="M817.876,556.408l-8.5-8.5a.948.948,0,0,0-1.34,0l-1.194,1.195a.008.008,0,0,0,.011.013.939.939,0,0,1,1.19.114l8.473,8.476a.971.971,0,0,0,1.3.091A.939.939,0,0,0,817.876,556.408Z" transform="translate(-796.933 -534.519)" fill="url(#linear-gradient-2)"/>
    <path id="Path-3" data-name="Path" d="M817.694,492.62a.94.94,0,0,0,1.33,0l5.151-5.153a.939.939,0,1,0-1.327-1.328l-5.811,5.813a.009.009,0,0,0,0,.013Z" transform="translate(-805.303 -483.816)" fill="url(#linear-gradient-3)"/>
    <path id="Path-4" data-name="Path" d="M764.689,476.045l8.5,8.5a.947.947,0,0,0,1.34,0l1.194-1.195a.008.008,0,0,0-.011-.013.939.939,0,0,1-1.19-.114l-8.473-8.476a.971.971,0,0,0-1.3-.091A.939.939,0,0,0,764.689,476.045Z" transform="translate(-762.105 -474.452)" fill="url(#linear-gradient-4)"/>
    <path id="Path-5" data-name="Path" d="M769.672,505.509a.948.948,0,0,0,0-1.341l-5.109-5.111a.972.972,0,0,0-1.3-.092.941.941,0,0,0-.06,1.387l5.805,5.808a.009.009,0,0,0,.013,0Z" transform="translate(-760.884 -494.403)" fill="url(#linear-gradient-5)"/>
    <path id="Path-6" data-name="Path" d="M753.113,540.613l8.5-8.5a.949.949,0,0,0,0-1.341l-1.194-1.195a.008.008,0,0,0-.013.011.939.939,0,0,1-.114,1.19l-8.473,8.476a.972.972,0,0,0-.091,1.3A.939.939,0,0,0,753.113,540.613Z" transform="translate(-751.521 -519.697)" fill="url(#linear-gradient-6)"/>
    <path id="Path-7" data-name="Path" d="M832.276,540.794a.942.942,0,0,0,0,1.332l5.158,5.159a.939.939,0,1,0,1.327-1.328l-5.818-5.82a.009.009,0,0,0-.013,0Z" transform="translate(-817.591 -528.369)" fill="url(#linear-gradient-7)"/>
    <path id="Path-8" data-name="Path" d="M833.513,487.763l-8.5,8.5a.949.949,0,0,0,0,1.341l1.194,1.194a.008.008,0,1,0,.013-.011.939.939,0,0,1,.114-1.19l8.473-8.476a.972.972,0,0,0,.091-1.3A.938.938,0,0,0,833.513,487.763Z" transform="translate(-811.625 -485.153)" fill="url(#linear-gradient-8)"/>
  </g>
</svg>
