<svg xmlns="http://www.w3.org/2000/svg" width="14.998" height="29.001" viewBox="0 0 14.998 29.001">
  <path d="M11643.852,9771.181v-2.964a.531.531,0,0,1,.166-.386.49.49,0,0,1,.71.044.51.51,0,0,1,.123.336v2.975a.548.548,0,0,1-.129.34l-.035.035a.486.486,0,0,1-.339.14A.51.51,0,0,1,11643.852,9771.181Zm-10.083-3.926a.489.489,0,0,1-.474-.531.508.508,0,0,1,.152-.327l2.1-2.1a.554.554,0,0,1,.333-.152l.05,0a.489.489,0,0,1,.336.141.509.509,0,0,1-.015.719l-2.1,2.1a.544.544,0,0,1-.378.155Zm-2.4-9.454a.525.525,0,0,1-.383-.166.489.489,0,0,1,.041-.71.522.522,0,0,1,.336-.123h2.976a.553.553,0,0,1,.342.126l.035.037a.5.5,0,0,1,.137.34.508.508,0,0,1-.52.5Zm5.176-7.7v0l-2.093-2.093a.528.528,0,0,1-.154-.392.489.489,0,0,1,.531-.471.516.516,0,0,1,.325.149l0,0,2.1,2.1a.533.533,0,0,1,.149.33v.053a.48.48,0,0,1-.488.477A.533.533,0,0,1,11636.545,9750.1Zm7.307-2.92v-2.966a.528.528,0,0,1,.166-.383.49.49,0,0,1,.71.041.52.52,0,0,1,.123.336v2.975a.552.552,0,0,1-.129.342l-.035.035a.492.492,0,0,1-.339.138A.507.507,0,0,1,11643.852,9747.181Z" transform="translate(-11630.353 -9743.199)" fill="" stroke="rgba(0,0,0,0)" strokeMiterlimit="10" strokeWidth="1" />
</svg>
