<svg xmlns="http://www.w3.org/2000/svg" width="150.33" height="24" viewBox="0 0 150.33 24">
  <g id="Icrypex_One" transform="translate(0 1.959)">
    <rect id="Box" width="150" height="24" transform="translate(0 -1.959)" fill="#182239" opacity="0"/>
    <path id="Type" d="M-2315.844,1830.6a10.076,10.076,0,0,1,1.428-13.081,10.042,10.042,0,0,1,14.192.537q.241.26.464.537l.012.017a.241.241,0,0,1-.068.334h0l-2.2,1.468a.252.252,0,0,1-.321-.037,6.852,6.852,0,0,0-5.367-2.41,6.922,6.922,0,0,0-6.823,7.021,6.922,6.922,0,0,0,6.934,6.823h0a6.909,6.909,0,0,0,5.256-2.422.252.252,0,0,1,.321-.038l2.2,1.469.017.012a.242.242,0,0,1,.04.339,10.042,10.042,0,0,1-14.118,1.54,10.066,10.066,0,0,1-1.967-2.111Zm101.966,4.133a.485.485,0,0,1-.394-.2l-4.823-6.74a.24.24,0,0,0-.336-.055.251.251,0,0,0-.056.055l-4.822,6.74a.486.486,0,0,1-.395.2h-3.118a.241.241,0,0,1-.139-.047.245.245,0,0,1-.057-.342h0l6.64-9.268a.413.413,0,0,0,0-.481l-6.64-9.267a.246.246,0,0,1,.057-.343.242.242,0,0,1,.14-.046h3.11a.486.486,0,0,1,.395.2l13.754,19.2a.246.246,0,0,1-.059.344.243.243,0,0,1-.137.046Zm-47.186,0a.241.241,0,0,1-.241-.241h0l-.008-.007v-19.292a.247.247,0,0,1,.24-.25h7.59a6.554,6.554,0,0,1,6.6,6.21c.153,4.1-3.571,6.587-6.449,6.7-.838.032-3.034.031-4.638.023a.217.217,0,0,0-.218.216v6.4a.241.241,0,0,1-.241.241Zm2.878-16.441v6.21a.218.218,0,0,0,.219.218h4.638a3.324,3.324,0,0,0,3.323-3.324,3.306,3.306,0,0,0-.021-.371,3.383,3.383,0,0,0-3.4-2.951h-4.543a.218.218,0,0,0-.218.218Zm-27.656,16.441a.4.4,0,0,1-.348-.2l-3.843-6.655-1.655-2.866a.194.194,0,0,1,.071-.265.2.2,0,0,1,.1-.026h2.51a3.324,3.324,0,0,0,3.325-3.322,3.254,3.254,0,0,0-.046-.549,3.374,3.374,0,0,0-3.362-2.775h-4.531a.24.24,0,0,0-.24.241l0,16.177a.241.241,0,0,1-.241.241h-2.637a.24.24,0,0,1-.241-.24h0l-.008-.007v-19.291a.248.248,0,0,1,.241-.25h7.6a6.545,6.545,0,0,1,6.577,6.007,6.426,6.426,0,0,1-3.98,6.289.193.193,0,0,0-.1.255l.01.018,4.029,6.981a.16.16,0,0,1-.058.219.164.164,0,0,1-.081.021Zm11.629,0a.243.243,0,0,1-.242-.242h0v-6.07a.73.73,0,0,0-.1-.364l-7.357-12.744a.242.242,0,0,1,.088-.331.242.242,0,0,1,.122-.033h2.909a.485.485,0,0,1,.42.243l5.291,9.164a.218.218,0,0,0,.3.08.216.216,0,0,0,.08-.08l5.291-9.164a.485.485,0,0,1,.42-.243h2.909a.243.243,0,0,1,.244.242.243.243,0,0,1-.033.122l-7.361,12.75a.732.732,0,0,0-.1.364v6.065a.243.243,0,0,1-.242.243h-2.642Zm-48.989,0a.241.241,0,0,1-.241-.241h0v-19.543a3.127,3.127,0,0,1,3.121,3.125v16.418a.241.241,0,0,1-.241.241h-2.637Zm79.118,0a.241.241,0,0,1-.241-.24h0v-19.292a.247.247,0,0,1,.241-.25H-2231a.247.247,0,0,1,.241.252v2.634a.24.24,0,0,1-.24.241h-9.965a.241.241,0,0,0-.241.241v4.712a.255.255,0,0,0,.241.252h8.348a.242.242,0,0,1,.241.241l.008,2.642a.241.241,0,0,1-.24.242h-8.357a.241.241,0,0,0-.241.241v4.714a.235.235,0,0,0,.231.241H-2231a.247.247,0,0,1,.24.252l0,2.637a.24.24,0,0,1-.24.24h-13.086Z" transform="translate(2323.445 -1814.844)" fill="#fff"/>
    <path id="Blue" d="M2424.881,10243.86h-30.488a2.357,2.357,0,0,1-1.907-1l-5.178-7.228a2.707,2.707,0,0,1,0-3.4l5.178-7.228a2.424,2.424,0,0,1,1.907-.964h31.4a2.06,2.06,0,0,1,2.059,2.06v15.7a2.06,2.06,0,0,1-2.059,2.06ZM2383,10230.039l3.355-4.682a3.136,3.136,0,0,1,2.555-1.316h2.221l-6.208,8.68Z" transform="translate(-2278.023 -10223.944)" fill="#357ce1" stroke="rgba(0,0,0,0)" stroke-miterlimit="10" stroke-width="1"/>
    <path id="One" d="M2267.747,10225.012a5.5,5.5,0,1,1,5.49,5.477A5.518,5.518,0,0,1,2267.747,10225.012Zm2.144-.013a3.352,3.352,0,1,0,3.345-3.358A3.349,3.349,0,0,0,2269.891,10225Zm18.632,5.481-6.278-6.105v5.924h-2.123v-10.784h.105l6.262,6.093v-5.92h2.131v10.793Zm1.936-.194v-10.573h6.375v2.093h-4.249v2.066h3.646v2.118h-3.646v2.183h4.249v2.113Z" transform="translate(-2152.494 -10214.951)" fill="#fff" stroke="rgba(0,0,0,0)" stroke-miterlimit="10" stroke-width="1"/>
  </g>
</svg>
