<svg xmlns="http://www.w3.org/2000/svg" width="16.015" height="29.106" viewBox="0 0 16.015 29.106">
  <path id="DarkSide" d="M11631.611,9771.473v-.608l-.587-.189a.206.206,0,0,1-.158-.149c0-.006,0-.015-.006-.021a.233.233,0,0,1,.164-.283l.587-.19v-.607a.235.235,0,0,1,.1-.19l.006,0a.235.235,0,0,1,.324.059l.371.494.591-.192a.264.264,0,0,1,.213.037.147.147,0,0,1,.035.023v0a.21.21,0,0,1,.023.3l-.351.476.351.494a.2.2,0,0,1,.041.208v.009h0a.239.239,0,0,1-.31.143l-.588-.189-.371.494a.269.269,0,0,1-.2.1h0c-.021,0-.038,0-.038.018A.227.227,0,0,1,11631.611,9771.473Zm6.708-3.049v-.83l-.8-.26a.286.286,0,0,1-.217-.207.086.086,0,0,1-.006-.026.315.315,0,0,1,.223-.389l.8-.261v-.83a.316.316,0,0,1,.135-.26l.006-.006a.323.323,0,0,1,.443.082l.512.678.8-.26a.37.37,0,0,1,.293.053.214.214,0,0,1,.04.025.3.3,0,0,1,.041.415l-.479.649.481.675a.277.277,0,0,1,.053.287v.011a.331.331,0,0,1-.424.2l-.8-.26-.509.675a.374.374,0,0,1-.266.132l0-.006c-.026,0-.053,0-.053.023A.31.31,0,0,1,11638.319,9768.424Zm4.775-8.64-.43-1.273-1.364-.026a.328.328,0,0,1-.267-.129l-.026-.038a.3.3,0,0,1,.105-.406l1.128-.78-.4-1.248a.354.354,0,0,1,.053-.286l.012-.015a.319.319,0,0,1,.444-.062l1.1.777,1.126-.777a.3.3,0,0,1,.295-.053l.026.006,0,0a.315.315,0,0,1,.184.406l-.453,1.271,1.1.81a.313.313,0,0,1,.134.26.35.35,0,0,1-.348.311h-1.37l-.43,1.273a.333.333,0,0,1-.267.208h-.023v0A.34.34,0,0,1,11643.095,9759.784Zm-4.849-9.812v-.833l-.8-.26a.287.287,0,0,1-.216-.207l-.009-.026a.318.318,0,0,1,.225-.389l.8-.261v-.83a.32.32,0,0,1,.135-.26l.006-.006a.324.324,0,0,1,.444.085l.511.675.8-.266a.377.377,0,0,1,.3.053c.015.009.029.021.044.031l0,0a.289.289,0,0,1,.031.409l-.481.649.481.675a.278.278,0,0,1,.053.287v.012a.328.328,0,0,1-.424.2l-.8-.26-.511.678a.38.38,0,0,1-.264.129h-.006c-.026,0-.053,0-.053.026A.31.31,0,0,1,11638.246,9749.973Zm-6.635-3.989v-.607l-.587-.19a.214.214,0,0,1-.158-.152c0-.006,0-.012-.006-.018a.236.236,0,0,1,.164-.286l.587-.189v-.605a.241.241,0,0,1,.1-.192l.006,0a.237.237,0,0,1,.324.061l.371.494.591-.2a.272.272,0,0,1,.213.038l.035.023v0a.209.209,0,0,1,.023.3l-.351.477.351.493a.205.205,0,0,1,.041.211v.006l0,0a.242.242,0,0,1-.31.144l-.588-.19-.371.494a.278.278,0,0,1-.2.094h0c-.021,0-.038,0-.038.021A.23.23,0,0,1,11631.611,9745.983Z" transform="translate(-11630.339 -9743.162)" fill="" stroke="rgba(0,0,0,0)" strokeMiterlimit="10" strokeWidth="1" />
</svg>
