<svg id="icons_spite_currencysmallicon" xmlns="http://www.w3.org/2000/svg" width="272" height="16" viewBox="0 0 272 16">
  <g id="TRY">
    <rect id="icon_bg" width="16" height="16" fill="#fff" opacity="0"/>
    <path id="Try_Icon" d="M327.582,134.217a7.729,7.729,0,0,1-.622,3.117,5.68,5.68,0,0,1-1.689,2.265,3.694,3.694,0,0,1-2.325.834h-1.057a.181.181,0,0,1-.151-.08.331.331,0,0,1-.059-.2v-5.4l-1.416.583a.153.153,0,0,1-.059.009.186.186,0,0,1-.126-.053.315.315,0,0,1-.086-.23v-1.129a.273.273,0,0,1,.151-.274l1.534-.627v-.821l-1.416.583a.153.153,0,0,1-.059.009.186.186,0,0,1-.126-.053.315.315,0,0,1-.086-.23v-1.13a.273.273,0,0,1,.151-.274l1.534-.627V128.28a.331.331,0,0,1,.059-.2.181.181,0,0,1,.154-.077h1.053a.181.181,0,0,1,.151.08.331.331,0,0,1,.059.2v1.6l2.469-1.024a.153.153,0,0,1,.184.044.316.316,0,0,1,.086.23v1.13a.273.273,0,0,1-.151.274l-2.588,1.069v.821l2.469-1.024a.153.153,0,0,1,.184.044.315.315,0,0,1,.086.23v1.13a.273.273,0,0,1-.151.274l-2.588,1.069v4.3a2.847,2.847,0,0,0,2.094-1.333,4.909,4.909,0,0,0,.856-2.9.331.331,0,0,1,.059-.2.181.181,0,0,1,.151-.08h1.054a.181.181,0,0,1,.151.08A.331.331,0,0,1,327.582,134.217Z" transform="translate(-315.645 -126.247)" fill="#fff"/>
  </g>
  <g id="USD" transform="translate(16)">
    <rect id="icon_bg-2" data-name="icon_bg" width="16" height="16" fill="#fff" opacity="0"/>
    <path id="Usd_Icon" d="M173.572,262.488a6.066,6.066,0,0,0,2.9,1.1v.877a.622.622,0,0,0,.62.61.6.6,0,0,0,.61-.61v-.847c1.8-.167,3.022-1.2,3.022-2.766a2.539,2.539,0,0,0-.276-1.221c-.414-.8-1.309-1.319-2.805-1.692v-2.717a4.993,4.993,0,0,1,1.457.62.79.79,0,0,0,1.221-.65.763.763,0,0,0-.424-.679,5.1,5.1,0,0,0-2.193-.778v-.325a.607.607,0,0,0-.61-.61.615.615,0,0,0-.62.61v.3a4.03,4.03,0,0,0-1.486.394,2.672,2.672,0,0,0-1.191,1.112,2.44,2.44,0,0,0-.3,1.2,2.492,2.492,0,0,0,.483,1.585,4.632,4.632,0,0,0,2.55,1.339v2.8a4.983,4.983,0,0,1-2.1-.945.772.772,0,0,0-.462-.157.761.761,0,0,0-.778.778.744.744,0,0,0,.371.676Zm4.073-2.883c.019.01.049.01.069.019,1.034.335,1.339.719,1.339,1.329,0,.679-.493,1.132-1.4,1.231v-2.579Zm-1.683-2.185h0a1.12,1.12,0,0,1-.8-1.1c0-.62.453-1.1,1.359-1.191v2.51a3.961,3.961,0,0,1-.559-.219Z" transform="translate(-168.917 -250.941)" fill="#fff"/>
  </g>
  <g id="EUR" transform="translate(32)">
    <rect id="icon_bg-3" data-name="icon_bg" width="16" height="16" fill="#fff" opacity="0"/>
    <path id="Path_9660" data-name="Path 9660" d="M44.206,9.566c-.12-.294-.243-.588-.377-.878a.415.415,0,0,0-.553-.27c-.359.082-.711.192-1.07.265a4.035,4.035,0,0,1-2.072-.058,2.445,2.445,0,0,1-1.6-1.693h2.326a.329.329,0,0,0,.33-.33V5.869a.329.329,0,0,0-.33-.33H38.317c0-.2,0-.4,0-.6h2.549a.329.329,0,0,0,.33-.33V3.879a.329.329,0,0,0-.33-.33H38.638a.033.033,0,0,1,0-.022,2.37,2.37,0,0,1,1.3-1.35,3.892,3.892,0,0,1,2.271-.129c.363.074.72.185,1.083.267a.408.408,0,0,0,.533-.265c.131-.285.252-.575.372-.867a.438.438,0,0,0-.212-.619,1.377,1.377,0,0,0-.2-.1A6.282,6.282,0,0,0,40.46.076a4.747,4.747,0,0,0-2.2.909A4.83,4.83,0,0,0,36.6,3.436l-.038.114H35.418a.329.329,0,0,0-.33.33v.733a.329.329,0,0,0,.33.33h.9v.6h-.9a.329.329,0,0,0-.33.33V6.6a.329.329,0,0,0,.33.33h1.087c.082.267.152.539.256.8a4.512,4.512,0,0,0,2.861,2.723,5.908,5.908,0,0,0,3.46.042,5.752,5.752,0,0,0,.885-.321A.422.422,0,0,0,44.206,9.566Z" transform="translate(-32.671 2.635)" fill="#fff"/>
  </g>
  <g id="TRYB" transform="translate(48)">
    <rect id="icon_bg-4" data-name="icon_bg" width="16" height="16" fill="#fff" opacity="0"/>
    <path id="Tryb-2" data-name="Tryb" d="M-368-283l1.341.379v10.265c2.612-.367,3.966-2.027,4.212-5.144l-2.888-.818v-1.426l4.1,1.161.153.044s.005.542,0,.722c-.006.237-.029.468-.052.687-.5,4.852-3.561,6.077-6.16,6.212l-.7.038Zm2.664,2.231V-282.2l3.206.909-.357,1.325Z" transform="translate(373.8 284.939)" fill="#fff"/>
  </g>
  <g id="USDT" transform="translate(64)">
    <rect id="icon_bg-5" data-name="icon_bg" width="16" height="16" fill="#fff" opacity="0"/>
    <path id="Usdt-2" data-name="Usdt" d="M400.094,494.958v-1.434h3.258V491.34h-8.871v2.185h3.258v1.432c-2.648.122-4.639.65-4.639,1.28s1.992,1.16,4.639,1.28v4.593h2.356v-4.587c2.643-.123,4.63-.65,4.63-1.28s-1.984-1.159-4.63-1.28m0,2.176h0c-.064,0-.408.025-1.168.025-.608,0-1.036-.017-1.186-.026h0c-2.339-.1-4.086-.512-4.086-1s1.746-.9,4.086-1v1.6c.153.011.591.036,1.2.036.727,0,1.092-.031,1.159-.036v-1.6c2.335.1,4.077.512,4.077,1s-1.743.9-4.077,1" transform="translate(-390.912 -488.725)" fill="#fff"/>
  </g>
  <g id="BTC" transform="translate(80)">
    <rect id="icon_bg-6" data-name="icon_bg" width="16" height="16" fill="#fff" opacity="0"/>
    <path id="Btc_Icon" d="M17.589,11.031c.2-1.317-.8-2.022-2.176-2.493l.444-1.782-1.084-.27L14.34,8.221c-.286-.072-.577-.138-.869-.2L13.91,6.27,12.825,6l-.444,1.781c-.236-.054-.468-.107-.692-.163V7.612l-1.5-.373L9.906,8.4s.8.184.788.2a.577.577,0,0,1,.505.63l-.506,2.03a.964.964,0,0,1,.115.036l-.115-.028L9.985,14.1a.4.4,0,0,1-.5.257c.011.015-.788-.2-.788-.2L8.161,15.4l1.412.352c.262.066.519.135.773.2l-.448,1.8,1.081.269.444-1.782c.3.08.584.153.865.224l-.443,1.775,1.084.27.448-1.8c1.849.35,3.24.209,3.825-1.464a1.9,1.9,0,0,0-1-2.63,1.728,1.728,0,0,0,1.385-1.592Zm-2.476,3.474c-.334,1.347-2.6.618-3.337.436l.6-2.387C13.1,12.738,15.461,13.1,15.113,14.505Zm.336-3.493c-.305,1.225-2.193.6-2.806.45L13.182,9.3c.614.152,2.583.436,2.265,1.715Z" transform="translate(-5.051 -4.257)" fill="#fff"/>
  </g>
  <g id="ETH" transform="translate(96)">
    <rect id="icon_bg-7" data-name="icon_bg" width="16" height="16" fill="#fff" opacity="0"/>
    <g id="Currency_Icon_Eth" transform="translate(-4.994 -2.52)">
      <path id="Path" d="M16.5,4V8.559l3.854,1.722Z" transform="translate(-3.487 0.382)" fill="rgba(255,255,255,0.6)"/>
      <path id="Path-2" data-name="Path" d="M12.854,4,9,10.281l3.854-1.722Z" transform="translate(0.158 0.382)" fill="#fff"/>
      <path id="Path-3" data-name="Path" d="M16.5,19.851v3.1l3.856-5.335Z" transform="translate(-3.487 -6.234)" fill="rgba(255,255,255,0.6)"/>
      <path id="Path-4" data-name="Path" d="M12.854,22.951v-3.1L9,17.616Z" transform="translate(0.158 -6.235)" fill="#fff"/>
      <path id="Path-5" data-name="Path" d="M16.5,16.83l3.854-2.238L16.5,12.872Z" transform="translate(-3.487 -3.93)" fill="rgba(255,255,255,0.2)"/>
      <path id="Path-6" data-name="Path" d="M9,14.593l3.854,2.238V12.872Z" transform="translate(0.158 -3.93)" fill="rgba(255,255,255,0.6)"/>
    </g>
  </g>
  <g id="XRP" transform="translate(112)">
    <rect id="icon_bg-8" data-name="icon_bg" width="16" height="16" fill="#fff" opacity="0"/>
    <path id="Xrp-2" data-name="Xrp" d="M0,8.5c.117-.121.239-.236.354-.358.239-.223.459-.462.7-.686.608-.61,1.225-1.212,1.834-1.82.122-.115.236-.24.363-.35a2.884,2.884,0,0,1,1.336-.655,3.9,3.9,0,0,1,.483-.057,1.541,1.541,0,0,1,.269.01,2.868,2.868,0,0,1,1.85.826c.159.159.321.315.479.475s.311.3.46.455c.165.169.339.329.5.5.382.384.77.761,1.151,1.145.179.167.35.343.523.518H8.8q-.573-.563-1.14-1.135c-.206-.184-.388-.392-.594-.579-.162-.163-.323-.325-.487-.486a2.237,2.237,0,0,0-.445-.382A1.831,1.831,0,0,0,3.9,6.124c-.223.223-.445.441-.666.663-.2.188-.389.394-.594.581Q2.074,7.936,1.5,8.5ZM3.634,3.443a3,3,0,0,1-.62-.509c-.2-.2-.4-.406-.608-.6-.151-.147-.294-.3-.452-.447-.167-.168-.333-.337-.5-.5C.986.924.517.465.049,0H1.555c.531.533,1.07,1.056,1.6,1.59.23.218.449.445.676.668a1.84,1.84,0,0,0,2.054.407,1.9,1.9,0,0,0,.554-.373c.106-.115.222-.22.33-.333S7,1.717,7.13,1.605c.174-.171.343-.35.521-.515C8.01.727,8.377.372,8.738.009L8.755,0h1.5c-.177.173-.348.353-.529.522-.43.433-.867.858-1.3,1.29-.206.191-.4.4-.6.59q-.343.343-.691.686a2.851,2.851,0,0,1-.76.512,2.875,2.875,0,0,1-1.22.269,2.887,2.887,0,0,1-1.519-.427Z" transform="translate(2.848 3.75)" fill="#fff"/>
  </g>
  <g id="LTC" transform="translate(128)">
    <rect id="icon_bg-9" data-name="icon_bg" width="16" height="16" fill="#fff" opacity="0"/>
    <path id="Path-7" data-name="Path" d="M9.852,14.7,9,15.026l.411-1.647.862-.346L11.515,8h3.06l-.907,3.7.842-.341L14.1,13l-.852.341-.506,2.08h4.61l-.521,2.132H9.15Z" transform="translate(-5.231 -4.792)" fill="#fff" fill-rule="evenodd"/>
  </g>
  <g id="XLM" transform="translate(144)">
    <rect id="icon_bg-10" data-name="icon_bg" width="16" height="16" fill="#fff" opacity="0"/>
    <path id="Union_2" data-name="Union 2" d="M-673.142-273.446l.85-.426.049-.025a4,4,0,0,0,3.915-.035,3.857,3.857,0,0,0,1.95-3.335,3.819,3.819,0,0,0-.033-.513l-6.62,3.312-1.369.689-1.6.8v-.968l1.614-.807.783-.393,8.978-4.492v.965l-.414.207a.857.857,0,0,0-.474.831c.009.122.014.241.014.363a4.72,4.72,0,0,1-2.628,4.211,4.876,4.876,0,0,1-2.183.515,4.867,4.867,0,0,1-2.83-.9ZM-676-275.872l.413-.207a.861.861,0,0,0,.476-.831q-.014-.179-.014-.36a4.719,4.719,0,0,1,2.626-4.213,4.883,4.883,0,0,1,5.012.386l-.117.059-.784.393a4,4,0,0,0-4.13.175,3.844,3.844,0,0,0-1.7,3.706l6.613-3.31,1.369-.685,1.605-.807v.968l-1.619.811-.783.392L-674-275.9l-.388.193-.393.2-1.217.607Z" transform="translate(678.313 285.273)" fill="#fff"/>
  </g>
  <g id="LINK" transform="translate(160)">
    <rect id="icon_bg-11" data-name="icon_bg" width="16" height="16" fill="#fff" opacity="0"/>
    <path id="Path_260" data-name="Path 260" d="M4.759,0,3.751.579,1.008,2.166,0,2.745v5.49l1.008.579L3.778,10.4l1.008.579L5.792,10.4l2.72-1.587L9.52,8.236V2.745L8.512,2.166,5.767.579ZM2.014,7.076V3.9L4.759,2.317,7.5,3.9V7.076L4.759,8.665Z" transform="translate(3.293 2.51)" fill="#fff"/>
  </g>
  <g id="DOT" transform="translate(176)">
    <rect id="icon_bg-12" data-name="icon_bg" width="16" height="16" fill="#fff" opacity="0"/>
    <g id="polkadot" transform="translate(4.25 2.964)">
      <path id="Path_1" data-name="Path 1" d="M3.815,0A3.83,3.83,0,0,0,0,3.815,3.919,3.919,0,0,0,.2,5.056a.545.545,0,0,0,.672.335A.543.543,0,0,0,1.2,4.722a2.517,2.517,0,0,1-.148-.973A2.752,2.752,0,1,1,3.966,6.577s-.536.033-.8.065a2.77,2.77,0,0,0-.292.058.035.035,0,0,1-.052,0h0a.035.035,0,0,1,0-.042L2.9,6.2l.5-2.261a.523.523,0,0,0-1.022-.22s-1.2,5.537-1.2,5.588a.5.5,0,0,0,.362.611h.037A.5.5,0,0,0,2.2,9.559a.136.136,0,0,0,0-.013.129.129,0,0,1,0-.025c.015-.065.166-.8.166-.8A1.357,1.357,0,0,1,3.493,7.652c.115-.018.6-.052.6-.052A3.812,3.812,0,0,0,3.815,0Z" transform="translate(0)" fill="#fff"/>
      <path id="Path_2" data-name="Path 2" d="M815.429,2182.968a.636.636,0,0,0-.752.493v.01a.633.633,0,0,0,.484.753h.019a.621.621,0,0,0,.752-.459v-.042A.659.659,0,0,0,815.429,2182.968Z" transform="translate(-811.383 -2174.17)" fill="#e6007a"/>
    </g>
  </g>
  <g id="BAT" transform="translate(192)">
    <rect id="icon_bg-13" data-name="icon_bg" width="16" height="16" fill="#fff" opacity="0"/>
    <path id="Path_7" data-name="Path 7" d="M6,15.581,11.369,6.5l5.315,9.069Zm5.356-5.406L9.162,13.8h4.4l-2.205-3.625Z" transform="translate(-3.342 -3.456)" fill="#fff"/>
  </g>
  <g id="ALGO" transform="translate(208)">
    <rect id="icon_bg-14" data-name="icon_bg" width="16" height="16" fill="#fff" opacity="0"/>
    <path id="algorand-algo-logo" d="M1.691,9.787,3.107,7.336,4.522,4.895,5.927,2.444l.233-.388.1.388L6.7,4.057l-.483.837L4.8,7.336,3.391,9.787H5.083L6.5,7.336l.733-1.268.345,1.268.654,2.451H9.75L9.094,7.336,8.439,4.893l-.173-.63L9.32,2.442H7.785l-.055-.183L7.2.259,7.127,0H5.651L5.617.05,4.237,2.442,2.822,4.893,1.416,7.334,0,9.787Z" transform="translate(3.125 3.106)" fill="#fff"/>
  </g>
  <g id="FTM" transform="translate(224)">
    <rect id="icon_bg-15" data-name="icon_bg" width="16" height="16" fill="#fff" opacity="0"/>
    <path id="Path_1-2" data-name="Path 1" d="M13.975,9.817l1.987-1.162v2.323ZM15.962,14.8l-2.65,1.549L10.663,14.8v-2.71l2.65,1.549,2.65-1.549Zm-5.3-6.14L12.65,9.817l-1.987,1.162Zm2.981,1.713,1.987,1.162-1.987,1.162Zm-.663,2.323L10.994,11.53l1.987-1.162ZM15.631,8.1,13.312,9.429,10.994,8.1l2.319-1.383ZM10,7.881v7.246l3.312,1.88,3.312-1.881V7.881L13.312,6Z" transform="translate(-5.312 -3.504)" fill="#fff" fill-rule="evenodd"/>
  </g>
  <g id="AVAX" transform="translate(240)">
    <rect id="icon_bg-16" data-name="icon_bg" width="16" height="16" fill="#fff" opacity="0"/>
    <path id="Awax" d="M6.456,8.681a.416.416,0,0,1-.379-.621L7.751,5.266a.452.452,0,0,1,.763,0L10.19,8.061a.416.416,0,0,1-.382.621ZM.443,8.676A.565.565,0,0,1,.1,8.531.472.472,0,0,1,.011,8.1S4.563.517,4.661.309A.458.458,0,0,1,5.051,0a.5.5,0,0,1,.372.121c.1.071,1.257,2,1.431,2.319a1.4,1.4,0,0,1,0,.883S4.272,7.624,3.979,8.1a1.428,1.428,0,0,1-.926.573Z" transform="translate(2.881 3.263)" fill="#fff"/>
  </g>
  <g id="MPAY" transform="translate(256)">
    <rect id="icon_bg-17" data-name="icon_bg" width="16" height="16" fill="#fff" opacity="0"/>
    <path id="Path-8" data-name="Path" d="M319.412,205.476v6.548a.933.933,0,0,1-.926.935h0a.933.933,0,0,1-.926-.935v-6.548a.933.933,0,0,1,.926-.935h0A.933.933,0,0,1,319.412,205.476Zm-3.7-2.338a.933.933,0,0,0-.926.935v2.338h-.926a.935.935,0,0,0,0,1.871h.926v2.338a.926.926,0,0,0,1.852,0v-6.548A.933.933,0,0,0,315.711,203.138Zm7.4,3.274h-.926v-2.338a.926.926,0,0,0-1.852,0v6.548a.926.926,0,0,0,1.852,0v-2.338h.926a.935.935,0,1,0,0-1.871Z" transform="translate(-310.485 -199.522)" fill="#fff"/>
  </g>
</svg>
