<svg id="icons_spite_banklogos" xmlns="http://www.w3.org/2000/svg" width="336" height="40" viewBox="0 0 336 40">
  <g id="Active" transform="translate(0 20)">
    <g id="Vakifbank" transform="translate(246)">
      <rect id="icon_bg" width="90" height="20" fill="#fff" opacity="0"/>
      <g id="Vakifbank_Logo" transform="translate(0.5 5.7)">
        <path id="Type" d="M56.768,11.239l1.092-5.783c.057-1.533-2.534-1.091-3.249-.794l-1.173,6.577h-.154l-2-.018,1.381-7.5c1.413-.569,7.395-1.539,7.312,1.48a3.853,3.853,0,0,1-.1.712c-.373,1.755-.657,3.537-1,5.3l-1.282.018Zm-23.183,0,.016-.063v-.013l1.832-9.586h0c.552-1.7,4.081-1.716,5.434-1.451,1.786.422,2.636,1.306,2.692,2.567a2.81,2.81,0,0,1-2.771,2.589v.032a2.558,2.558,0,0,1,2.233,2.421c-.075,2.553-2.224,3.449-4.68,3.469l-3.766.034ZM36.821,5.85l-.025.1h0l-.745,4.033,1.8.034c1.632-.082,2.7-.751,2.844-2.362-.068-1.544-1.264-1.832-2.828-1.832C37.538,5.819,37.183,5.832,36.821,5.85Zm1.827-.993a3.452,3.452,0,0,0,2.015-.612,1.727,1.727,0,0,0,.532-.712,2.7,2.7,0,0,0,.192-1.025,1.546,1.546,0,0,0-1.512-1.34l-.045,0a4.819,4.819,0,0,0-1.884.136c-.09.025-.179.048-.261.073l-.67,3.457h0Zm-10.1,6.382L29.82,4.551H28.456l.236-1.131h1.347l.167-.868v0a1.719,1.719,0,0,1,.281-.768C31.574.182,33.544-.171,35.793.264a1.289,1.289,0,0,0-.958.844l-.048.045C33.336.942,32.4,1.4,32.308,2.6l-.079.445-.073.381h1.592l-.233,1.133H31.945c-.415,2.226-.822,4.455-1.239,6.682Zm37.212-.005L63.262,7.218l-.772,4.015H60.334L62.413.361H64.57L63.332,6.839l3.756-3.487,2.194.03L65.329,6.957l2.864,4.276Zm-41.567,0,1.5-7.851h1.95l-1.5,7.851Zm-3.082,0L18.611,7.218l-.772,4.015H15.681L17.759.361h2.16L18.681,6.839l3.756-3.487,2.194.03L20.678,6.957l2.864,4.276Zm-17.621,0-1.393-.021L0,.361H2.588l.894,8.572L7.785.361h2.271L4.073,11.233Zm40.5-.791a1.909,1.909,0,0,1-.523-2.158c.84-1.612,2.96-2.217,5.8-2.253q.559-1.578-1.143-1.757a6.9,6.9,0,0,0-3.206.5L45.5,3.536a6.207,6.207,0,0,1,3.947-.34A2.118,2.118,0,0,1,51.4,5.817c-.337,1.782-.661,3.492-1,5.267H50.4a26.764,26.764,0,0,1-3.213.12c-.116.007-.231.011-.346.011A5.684,5.684,0,0,1,43.988,10.442Zm2.964-3.237a2.048,2.048,0,0,0-1.6,1.862c.084,1.24,1.678,1.224,2.72,1.211.147,0,.279,0,.4,0l.6-3.412A7.467,7.467,0,0,0,46.952,7.206ZM8.095,10.442A1.907,1.907,0,0,1,7.57,8.285c.836-1.612,2.955-2.217,5.8-2.253.373-1.052-.009-1.639-1.137-1.757a6.921,6.921,0,0,0-3.213.5L9.6,3.536a6.218,6.218,0,0,1,3.951-.34A2.119,2.119,0,0,1,15.5,5.817c-.342,1.782-.663,3.492-1,5.267h0a26.7,26.7,0,0,1-3.209.12c-.115.007-.231.011-.346.011A5.648,5.648,0,0,1,8.095,10.442Zm2.959-3.237a2.057,2.057,0,0,0-1.6,1.862c.086,1.24,1.678,1.224,2.72,1.211.145,0,.281,0,.4,0l.609-3.412A7.5,7.5,0,0,0,11.054,7.206Z" transform="translate(19.719 0.001)" fill="#92a4c5"/>
        <path id="Symbol" d="M365.825,355.9l3.723-.023a3.4,3.4,0,0,0,3.662-3.319,2.684,2.684,0,0,0-2.327-2.457v-.035h0a2.8,2.8,0,0,0,2.756-2.588c-.067-1.544-1.751-2.476-3.141-2.476h-.426l-.985-.007h-7.243a3.639,3.639,0,0,0-2.934,1.831,1.347,1.347,0,0,0-.177.464l-1.92,8.612Zm-6.23-8-1.655,7.136a5.021,5.021,0,0,0,3.64-.74,7.936,7.936,0,0,0,1.117-1.105l3.873-4.691a9.3,9.3,0,0,1,3.036-2.728,7.047,7.047,0,0,0-3.362.865,2.946,2.946,0,0,0-.832.71l-5.055,5.663c.3-1.38.648-3.05,1.016-4.536.026-.1.058-.2.077-.3a2.666,2.666,0,0,1,1.958-2.276,3.145,3.145,0,0,0-3.814,2Z" transform="translate(-356.814 -345)" fill="#92a4c5" fill-rule="evenodd"/>
      </g>
    </g>
    <g id="Odeabank" transform="translate(170)">
      <rect id="icon_bg-2" data-name="icon_bg" width="76" height="20" fill="#fff" opacity="0"/>
      <g id="Odeabank_Logo" transform="translate(0.5 3)">
        <path id="Odeabank_Logo-2" data-name="Odeabank_Logo" d="M21.665,154.612c-.006,1.9-.946,2.857-2.166,2.853-1.44,0-2.161-.983-2.154-2.9s1.1-2.742,2.208-2.739c1.458,0,2.117.984,2.112,2.787m2.56-.122c.009-3.211-1.753-4.684-4.494-4.692a4.768,4.768,0,0,0-4.948,5c-.009,3.327,1.756,4.706,4.494,4.713a4.8,4.8,0,0,0,4.948-5.023m6.866.011c0,1.592-.784,3.054-2.082,3.051-1.124,0-1.647-.9-1.643-2.651.006-2.306,1.02-3.166,2.435-3.162a5.833,5.833,0,0,1,1.3.158Zm.262,4.862,2.215.006.038-13.718-2.491-.008L31.1,149.9a8.622,8.622,0,0,0-1.219-.076c-3.2-.009-5.1,2.159-5.113,5.313-.007,2.663,1.145,4.392,3.5,4.4a3.236,3.236,0,0,0,3.049-1.756h.041Zm9.15-5.887-3.549-.009a1.9,1.9,0,0,1,1.887-1.855,1.607,1.607,0,0,1,1.661,1.864m2.38,1.641a7.754,7.754,0,0,0,.083-1.09c.006-2.31-1.229-4.166-4.041-4.173-2.892-.009-4.526,2.085-4.535,4.938-.009,3.28,1.695,4.771,4.757,4.78a9.9,9.9,0,0,0,3.452-.591l-.225-1.861a7.073,7.073,0,0,1-2.811.575c-1.786-.005-2.676-.851-2.649-2.594Zm6.316.391a2.176,2.176,0,0,1-2.064,2.246,1,1,0,0,1-1.137-1c0-.751.585-1.482,3.2-1.474Zm.284,3.9,2.194.006V157.58l.013-4.451c0-2.042-.863-3.244-3.964-3.252a10.9,10.9,0,0,0-3.455.567l.208,2.01a6.52,6.52,0,0,1,2.851-.725c1.4,0,1.88.514,1.877,1.491v.5c-3.275-.01-5.569,1.167-5.575,3.4,0,1.5,1,2.463,2.743,2.467a3.278,3.278,0,0,0,3.093-1.776h.023Zm9.869-4.87c-.006,2.306-1.017,3.169-2.431,3.164a4.187,4.187,0,0,1-1.283-.173l.008-2.627c0-1.558.784-3,2.064-3,1.128,0,1.647.886,1.643,2.632m2.62-.24c.01-2.757-1.229-4.388-3.537-4.4a3.141,3.141,0,0,0-2.779,1.393v-1.554l.008-2.862V145.7l-2.489-.007-.038,13.454a13.2,13.2,0,0,0,3.594.462c3.319.01,5.228-2.165,5.235-5.317m5.97,1.259a2.175,2.175,0,0,1-2.061,2.244c-.718,0-1.145-.4-1.144-1,0-.749.588-1.482,3.2-1.474Zm.279,3.9,2.2.006v-1.838l.013-4.451c0-2.042-.858-3.243-3.961-3.252a10.926,10.926,0,0,0-3.46.567l.211,2.01a6.487,6.487,0,0,1,2.853-.725c1.4,0,1.881.513,1.878,1.489v.5c-3.275-.009-5.571,1.168-5.577,3.4,0,1.5,1,2.462,2.745,2.466a3.281,3.281,0,0,0,3.093-1.775h.018Zm9.288.027,2.5.018.018-6.551c0-1.63-.717-2.982-2.889-2.988a3.536,3.536,0,0,0-3.285,1.865l-.018-.021v-1.67h-2.2l-.014,9.347,2.488.006.012-4.5c0-1.631.97-3.017,2.229-3.014.911,0,1.183.584,1.18,1.558Zm8.64-5.043,3.417-4.271-3.022-.009-2.841,3.9.022-8.277-2.484-.008L81.205,159.5l2.485.007.012-4.619,2.975,4.627,3.1.01Z" transform="translate(-14.777 -145.642)" fill="#92a4c5"/>
      </g>
    </g>
    <g id="ZiraatBankasi" transform="translate(76)">
      <rect id="icon_bg-3" data-name="icon_bg" width="94" height="20" fill="#fff" opacity="0"/>
      <g id="Ziraat_Logo" transform="translate(0.355 0.5)">
        <path id="Type-2" data-name="Type" d="M22.374,8.7a2.557,2.557,0,0,1,2.115-2.682A9.806,9.806,0,0,1,27,5.77V5.023a.971.971,0,0,0-.364-.672,1.076,1.076,0,0,0-.759-.23,11.12,11.12,0,0,0-2.194.37l.4-1.557a11.288,11.288,0,0,1,2.237-.269,2.526,2.526,0,0,1,1.916.762,2.262,2.262,0,0,1,.62,1.883v5.313H27.064v-.365h-.311a3.081,3.081,0,0,1-1.7.507C24.018,10.764,22.374,10.44,22.374,8.7Zm3.219-1.755a1.443,1.443,0,0,0-1.429,1.4,1.116,1.116,0,0,0,.418.818,1.24,1.24,0,0,0,.916.265c.994,0,1.45-.489,1.45-.79v-1.7S26.544,6.946,25.593,6.946ZM15.358,8.7a2.556,2.556,0,0,1,2.114-2.682,9.811,9.811,0,0,1,2.511-.248V5.023a1.024,1.024,0,0,0-1.119-.9,11.134,11.134,0,0,0-2.195.37l.4-1.557a11.279,11.279,0,0,1,2.237-.269,2.526,2.526,0,0,1,1.916.762,2.262,2.262,0,0,1,.62,1.883v5.313H20.051v-.365h-.3a3.088,3.088,0,0,1-1.709.507c-1.039,0-2.68-.324-2.68-2.063Zm3.218-1.757a1.442,1.442,0,0,0-1.427,1.4,1.117,1.117,0,0,0,.421.814,1.24,1.24,0,0,0,.914.263c.994,0,1.45-.489,1.45-.79V6.936s-.4.01-1.357.01Zm51.718,3.788v-.6a4.312,4.312,0,0,1-2,.6c-1.045,0-2.909-.386-2.909-2.274a2.541,2.541,0,0,1,.822-1.948,2.829,2.829,0,0,1,2.067-.743h1.917V4.746c0-.509-.654-1.166-1.889-.954a7.883,7.883,0,0,0-2.051.646l.145-1.166a7.834,7.834,0,0,1,2.614-.581,2.509,2.509,0,0,1,1.765.629,2.26,2.26,0,0,1,.763,1.638v5.775ZM66.646,8.268c0,.675.042,1.573,1.554,1.573a1.949,1.949,0,0,0,1.476-.575,1.745,1.745,0,0,0,.492-1.442V6.568H68.8C67.123,6.57,66.646,7.593,66.646,8.268Zm-17,2.468v-.6a4.319,4.319,0,0,1-2,.6c-1.045,0-2.909-.386-2.909-2.274a2.542,2.542,0,0,1,.823-1.948,2.83,2.83,0,0,1,2.067-.742h1.917V4.746c0-.509-.654-1.166-1.889-.954a7.884,7.884,0,0,0-2.051.646l.144-1.166a7.836,7.836,0,0,1,2.612-.581,2.509,2.509,0,0,1,1.765.629,2.26,2.26,0,0,1,.763,1.638v5.775ZM46,8.268c0,.675.042,1.573,1.554,1.573a1.949,1.949,0,0,0,1.477-.575,1.745,1.745,0,0,0,.492-1.442V6.568H48.153C46.476,6.57,46,7.593,46,8.268Zm26.46,1.716.415-1.032a4.658,4.658,0,0,0,2.237.609c1.264,0,1.7-.733,1.7-1.138s-.29-.829-1.781-1.157-2.361-1.119-2.361-2.43A2.384,2.384,0,0,1,75.3,2.772a5.846,5.846,0,0,1,2.371.554l-.3.929a5.807,5.807,0,0,0-1.724-.385c-.746,0-1.554.308-1.554.945s.5,1.076,1.617,1.292,2.446,1,2.446,2.146a2.808,2.808,0,0,1-2.881,2.412,6.312,6.312,0,0,1-2.817-.681Zm-16.1.664V5.139c0-.37-.025-1.041-1.118-1.041s-2.063.763-2.063,1.25v5.3H51.758V2.9L53.1,2.639V3.658a3.282,3.282,0,0,1,2.387-1,2.4,2.4,0,0,1,2.361,1.99v5.995ZM36.839,10.63V.07h3.575c1.733,0,3.419.9,3.419,2.4a3.383,3.383,0,0,1-1.554,2.488,2.786,2.786,0,0,1,2.052,2.633,3.057,3.057,0,0,1-2.667,3.038ZM38.3,9.4h2.55a1.957,1.957,0,0,0,1.424-.415,1.836,1.836,0,0,0,.215-2.629,1.959,1.959,0,0,0-1.345-.639H38.292Zm.046-4.9h2.284a1.775,1.775,0,0,0,1.259-.457,1.6,1.6,0,0,0,.528-1.178,1.658,1.658,0,0,0-.6-1.186,1.84,1.84,0,0,0-1.313-.419h-2.16ZM58.77,10.625V.047h1.589V5.741h.323L63.421,2.5h2.014L61.878,6.146l3.928,4.41H63.633L60.687,6.528h-.348v4.1ZM0,10.621V9.027L4.828,1.672H.415L.912,0H7.461V1.651L2.611,9.027H7.438l-.684,1.594Zm78.937-.005V2.877h1.336v7.739Zm-70.612,0V2.877h1.787v7.739ZM31.96,10.6A1.621,1.621,0,0,1,30.251,9.1v-5h-.84V2.905h.9V.851h1.727V2.934h1.989l-.449,1.187H32.066V8.565c0,.579.112.909.7.909h1.026V10.6ZM11.7,10.6v-7.7h1.486v.868a2.827,2.827,0,0,1,1.228-.694,3.161,3.161,0,0,1,1.342-.023V4.537H14.587c-.472,0-1.342.6-1.342,1.18V10.6ZM8.082,1.246a1.118,1.118,0,0,1,2.228,0,1.118,1.118,0,0,1-2.228,0Z" transform="translate(12.727 5.922)" fill="#92a4c5"/>
        <path id="Symbol-2" data-name="Symbol" d="M4.61,15.708l.454-.375V13.8l-.454.375V10.866l.454-.368V8.964l-.454.368V6.023L5.488,5.3l1.318-1.09L8.555,2.777V8.863a.912.912,0,0,1-.336.768.8.8,0,0,1,.336.591V15.77L6.805,17.205l-1.318,1.09-.878.721Zm2.87-3.89-.673.545-1.119.928v1.535L6.807,13.9l.776-.637a.713.713,0,0,0,.352-.623v-.705c0-.154-.079-.233-.19-.233a.431.431,0,0,0-.266.114Zm0-4.843-.673.545-1.119.929V9.983l1.119-.928.776-.638A.712.712,0,0,0,7.935,7.8v-.7c0-.154-.079-.233-.19-.233a.429.429,0,0,0-.266.118ZM3.066,18.295,0,15.77V12.462l.833-.852L0,10.928V7.62L2.612,9.769,3.066,9.3l.366-.383-.366-.3L0,6.085V2.777L3.066,5.3l.871.721V9.331l-.82.852.82.683v3.308l-.871-.721L1.339,12.025l-.827.852,2.554,2.11.871.721v3.308ZM4.61,1.473,5.488.736,6.359,0V1.181l-.871.736-.256.216V3.369l.256-.215.871-.73V3.605l-.871.738-.878.736ZM3.066,4.407l-.527-.453V2.77l.22.188v-1.3l-.564-.476V0l.871.736.871.737V2.655L3.374,2.18v1.3l.227.188V4.857Z" fill="#92a4c5"/>
      </g>
    </g>
    <g id="Akbank">
      <rect id="icon_bg-4" data-name="icon_bg" width="76" height="20" fill="#fff" opacity="0"/>
      <g id="Akbank_Logo" transform="translate(0.5 7.2)">
        <path id="Akbank_Logo-2" data-name="Akbank_Logo" d="M46.314,9.737,45.54,8.1H40.408l-.764,1.6H36.416L40.934.056h4.051L49.4,9.737ZM41.576,5.63h2.761L42.949,2.787l-.01-.023ZM30.7,9.737H25.661c-.01-3.227-.01-6.465-.019-9.7h8.381A2.161,2.161,0,0,1,35.776,1.7a3.505,3.505,0,0,1-.621,3.116,2.665,2.665,0,0,1,.9,2.156v.384a4.284,4.284,0,0,1-.057.5c-.186,1.069-.9,1.881-1.475,1.881ZM28.289,6.025V7.041h4.479a.5.5,0,0,0,.459-.519.487.487,0,0,0-.459-.508H30.694ZM30.7,2.532l-2.408.012V3.554h4.367a.487.487,0,0,0,.449-.519.487.487,0,0,0-.449-.519ZM9.893,9.737,9.127,8.1H3.992L3.231,9.7H0L4.521.056H8.568l4.421,9.68ZM5.161,5.63H7.913L6.537,2.787l-.014-.022ZM57.016,9.719,52.841,3.2V9.7H49.888V.056L54.418.034,58.68,6.816V.056H61.6V9.714Zm12.788,0L66.249,6.25h-.974V9.713H62.361V.033l2.81.023V3.43h1.108L69.566,0h4.12L69.012,4.932,74,9.713Zm-48.933,0L17.318,6.25h-.974V9.713H13.423V.033l2.81.023V3.43h1.119L20.633,0h4.12L20.07,4.932l5,4.783Z" transform="translate(0 0)" fill="#92a4c5"/>
      </g>
    </g>
  </g>
  <g id="Active-2" data-name="Active">
    <g id="Vakifbank-2" data-name="Vakifbank" transform="translate(246)">
      <rect id="icon_bg-5" data-name="icon_bg" width="90" height="20" fill="#fff" opacity="0"/>
      <g id="Vakifbank_Logo-2" data-name="Vakifbank_Logo" transform="translate(0.5 5.7)">
        <path id="Type-3" data-name="Type" d="M56.768,11.239l1.092-5.783c.057-1.533-2.534-1.091-3.249-.794l-1.173,6.577h-.154l-2-.018,1.381-7.5c1.413-.569,7.395-1.539,7.312,1.48a3.853,3.853,0,0,1-.1.712c-.373,1.755-.657,3.537-1,5.3l-1.282.018Zm-23.183,0,.016-.063v-.013l1.832-9.586h0c.552-1.7,4.081-1.716,5.434-1.451,1.786.422,2.636,1.306,2.692,2.567a2.81,2.81,0,0,1-2.771,2.589v.032a2.558,2.558,0,0,1,2.233,2.421c-.075,2.553-2.224,3.449-4.68,3.469l-3.766.034ZM36.821,5.85l-.025.1h0l-.745,4.033,1.8.034c1.632-.082,2.7-.751,2.844-2.362-.068-1.544-1.264-1.832-2.828-1.832C37.538,5.819,37.183,5.832,36.821,5.85Zm1.827-.993a3.452,3.452,0,0,0,2.015-.612,1.727,1.727,0,0,0,.532-.712,2.7,2.7,0,0,0,.192-1.025,1.546,1.546,0,0,0-1.512-1.34l-.045,0a4.819,4.819,0,0,0-1.884.136c-.09.025-.179.048-.261.073l-.67,3.457h0Zm-10.1,6.382L29.82,4.551H28.456l.236-1.131h1.347l.167-.868v0a1.719,1.719,0,0,1,.281-.768C31.574.182,33.544-.171,35.793.264a1.289,1.289,0,0,0-.958.844l-.048.045C33.336.942,32.4,1.4,32.308,2.6l-.079.445-.073.381h1.592l-.233,1.133H31.945c-.415,2.226-.822,4.455-1.239,6.682Zm37.212-.005L63.262,7.218l-.772,4.015H60.334L62.413.361H64.57L63.332,6.839l3.756-3.487,2.194.03L65.329,6.957l2.864,4.276Zm-41.567,0,1.5-7.851h1.95l-1.5,7.851Zm-3.082,0L18.611,7.218l-.772,4.015H15.681L17.759.361h2.16L18.681,6.839l3.756-3.487,2.194.03L20.678,6.957l2.864,4.276Zm-17.621,0-1.393-.021L0,.361H2.588l.894,8.572L7.785.361h2.271L4.073,11.233Zm40.5-.791a1.909,1.909,0,0,1-.523-2.158c.84-1.612,2.96-2.217,5.8-2.253q.559-1.578-1.143-1.757a6.9,6.9,0,0,0-3.206.5L45.5,3.536a6.207,6.207,0,0,1,3.947-.34A2.118,2.118,0,0,1,51.4,5.817c-.337,1.782-.661,3.492-1,5.267H50.4a26.764,26.764,0,0,1-3.213.12c-.116.007-.231.011-.346.011A5.684,5.684,0,0,1,43.988,10.442Zm2.964-3.237a2.048,2.048,0,0,0-1.6,1.862c.084,1.24,1.678,1.224,2.72,1.211.147,0,.279,0,.4,0l.6-3.412A7.467,7.467,0,0,0,46.952,7.206ZM8.095,10.442A1.907,1.907,0,0,1,7.57,8.285c.836-1.612,2.955-2.217,5.8-2.253.373-1.052-.009-1.639-1.137-1.757a6.921,6.921,0,0,0-3.213.5L9.6,3.536a6.218,6.218,0,0,1,3.951-.34A2.119,2.119,0,0,1,15.5,5.817c-.342,1.782-.663,3.492-1,5.267h0a26.7,26.7,0,0,1-3.209.12c-.115.007-.231.011-.346.011A5.648,5.648,0,0,1,8.095,10.442Zm2.959-3.237a2.057,2.057,0,0,0-1.6,1.862c.086,1.24,1.678,1.224,2.72,1.211.145,0,.281,0,.4,0l.609-3.412A7.5,7.5,0,0,0,11.054,7.206Z" transform="translate(19.719 0.001)" fill="#f2f6ff"/>
        <path id="Symbol-3" data-name="Symbol" d="M365.825,355.9l3.723-.023a3.4,3.4,0,0,0,3.662-3.319,2.684,2.684,0,0,0-2.327-2.457v-.035h0a2.8,2.8,0,0,0,2.756-2.588c-.067-1.544-1.751-2.476-3.141-2.476h-.426l-.985-.007h-7.243a3.639,3.639,0,0,0-2.934,1.831,1.347,1.347,0,0,0-.177.464l-1.92,8.612Zm-6.23-8-1.655,7.136a5.021,5.021,0,0,0,3.64-.74,7.936,7.936,0,0,0,1.117-1.105l3.873-4.691a9.3,9.3,0,0,1,3.036-2.728,7.047,7.047,0,0,0-3.362.865,2.946,2.946,0,0,0-.832.71l-5.055,5.663c.3-1.38.648-3.05,1.016-4.536.026-.1.058-.2.077-.3a2.666,2.666,0,0,1,1.958-2.276,3.145,3.145,0,0,0-3.814,2Z" transform="translate(-356.814 -345)" fill="#ffd101" fill-rule="evenodd"/>
      </g>
    </g>
    <g id="Odeabank-2" data-name="Odeabank" transform="translate(170)">
      <rect id="icon_bg-6" data-name="icon_bg" width="76" height="20" fill="#fff" opacity="0"/>
      <g id="Odeabank_Logo-3" data-name="Odeabank_Logo" transform="translate(0.5 3)">
        <path id="Odeabank_Logo-4" data-name="Odeabank_Logo" d="M21.665,154.612c-.006,1.9-.946,2.857-2.166,2.853-1.44,0-2.161-.983-2.154-2.9s1.1-2.742,2.208-2.739c1.458,0,2.117.984,2.112,2.787m2.56-.122c.009-3.211-1.753-4.684-4.494-4.692a4.768,4.768,0,0,0-4.948,5c-.009,3.327,1.756,4.706,4.494,4.713a4.8,4.8,0,0,0,4.948-5.023m6.866.011c0,1.592-.784,3.054-2.082,3.051-1.124,0-1.647-.9-1.643-2.651.006-2.306,1.02-3.166,2.435-3.162a5.833,5.833,0,0,1,1.3.158Zm.262,4.862,2.215.006.038-13.718-2.491-.008L31.1,149.9a8.622,8.622,0,0,0-1.219-.076c-3.2-.009-5.1,2.159-5.113,5.313-.007,2.663,1.145,4.392,3.5,4.4a3.236,3.236,0,0,0,3.049-1.756h.041Zm9.15-5.887-3.549-.009a1.9,1.9,0,0,1,1.887-1.855,1.607,1.607,0,0,1,1.661,1.864m2.38,1.641a7.754,7.754,0,0,0,.083-1.09c.006-2.31-1.229-4.166-4.041-4.173-2.892-.009-4.526,2.085-4.535,4.938-.009,3.28,1.695,4.771,4.757,4.78a9.9,9.9,0,0,0,3.452-.591l-.225-1.861a7.073,7.073,0,0,1-2.811.575c-1.786-.005-2.676-.851-2.649-2.594Zm6.316.391a2.176,2.176,0,0,1-2.064,2.246,1,1,0,0,1-1.137-1c0-.751.585-1.482,3.2-1.474Zm.284,3.9,2.194.006V157.58l.013-4.451c0-2.042-.863-3.244-3.964-3.252a10.9,10.9,0,0,0-3.455.567l.208,2.01a6.52,6.52,0,0,1,2.851-.725c1.4,0,1.88.514,1.877,1.491v.5c-3.275-.01-5.569,1.167-5.575,3.4,0,1.5,1,2.463,2.743,2.467a3.278,3.278,0,0,0,3.093-1.776h.023Zm9.869-4.87c-.006,2.306-1.017,3.169-2.431,3.164a4.187,4.187,0,0,1-1.283-.173l.008-2.627c0-1.558.784-3,2.064-3,1.128,0,1.647.886,1.643,2.632m2.62-.24c.01-2.757-1.229-4.388-3.537-4.4a3.141,3.141,0,0,0-2.779,1.393v-1.554l.008-2.862V145.7l-2.489-.007-.038,13.454a13.2,13.2,0,0,0,3.594.462c3.319.01,5.228-2.165,5.235-5.317m5.97,1.259a2.175,2.175,0,0,1-2.061,2.244c-.718,0-1.145-.4-1.144-1,0-.749.588-1.482,3.2-1.474Zm.279,3.9,2.2.006v-1.838l.013-4.451c0-2.042-.858-3.243-3.961-3.252a10.926,10.926,0,0,0-3.46.567l.211,2.01a6.487,6.487,0,0,1,2.853-.725c1.4,0,1.881.513,1.878,1.489v.5c-3.275-.009-5.571,1.168-5.577,3.4,0,1.5,1,2.462,2.745,2.466a3.281,3.281,0,0,0,3.093-1.775h.018Zm9.288.027,2.5.018.018-6.551c0-1.63-.717-2.982-2.889-2.988a3.536,3.536,0,0,0-3.285,1.865l-.018-.021v-1.67h-2.2l-.014,9.347,2.488.006.012-4.5c0-1.631.97-3.017,2.229-3.014.911,0,1.183.584,1.18,1.558Zm8.64-5.043,3.417-4.271-3.022-.009-2.841,3.9.022-8.277-2.484-.008L81.205,159.5l2.485.007.012-4.619,2.975,4.627,3.1.01Z" transform="translate(-14.777 -145.642)" fill="#f2f6ff"/>
      </g>
    </g>
    <g id="ZiraatBankasi-2" data-name="ZiraatBankasi" transform="translate(76)">
      <rect id="icon_bg-7" data-name="icon_bg" width="94" height="20" fill="#fff" opacity="0"/>
      <g id="Ziraat_Logo-2" data-name="Ziraat_Logo" transform="translate(0.355 0.5)">
        <path id="Type-4" data-name="Type" d="M22.374,8.7a2.557,2.557,0,0,1,2.115-2.682A9.806,9.806,0,0,1,27,5.77V5.023a.971.971,0,0,0-.364-.672,1.076,1.076,0,0,0-.759-.23,11.12,11.12,0,0,0-2.194.37l.4-1.557a11.288,11.288,0,0,1,2.237-.269,2.526,2.526,0,0,1,1.916.762,2.262,2.262,0,0,1,.62,1.883v5.313H27.064v-.365h-.311a3.081,3.081,0,0,1-1.7.507C24.018,10.764,22.374,10.44,22.374,8.7Zm3.219-1.755a1.443,1.443,0,0,0-1.429,1.4,1.116,1.116,0,0,0,.418.818,1.24,1.24,0,0,0,.916.265c.994,0,1.45-.489,1.45-.79v-1.7S26.544,6.946,25.593,6.946ZM15.358,8.7a2.556,2.556,0,0,1,2.114-2.682,9.811,9.811,0,0,1,2.511-.248V5.023a1.024,1.024,0,0,0-1.119-.9,11.134,11.134,0,0,0-2.195.37l.4-1.557a11.279,11.279,0,0,1,2.237-.269,2.526,2.526,0,0,1,1.916.762,2.262,2.262,0,0,1,.62,1.883v5.313H20.051v-.365h-.3a3.088,3.088,0,0,1-1.709.507c-1.039,0-2.68-.324-2.68-2.063Zm3.218-1.757a1.442,1.442,0,0,0-1.427,1.4,1.117,1.117,0,0,0,.421.814,1.24,1.24,0,0,0,.914.263c.994,0,1.45-.489,1.45-.79V6.936s-.4.01-1.357.01Zm51.718,3.788v-.6a4.312,4.312,0,0,1-2,.6c-1.045,0-2.909-.386-2.909-2.274a2.541,2.541,0,0,1,.822-1.948,2.829,2.829,0,0,1,2.067-.743h1.917V4.746c0-.509-.654-1.166-1.889-.954a7.883,7.883,0,0,0-2.051.646l.145-1.166a7.834,7.834,0,0,1,2.614-.581,2.509,2.509,0,0,1,1.765.629,2.26,2.26,0,0,1,.763,1.638v5.775ZM66.646,8.268c0,.675.042,1.573,1.554,1.573a1.949,1.949,0,0,0,1.476-.575,1.745,1.745,0,0,0,.492-1.442V6.568H68.8C67.123,6.57,66.646,7.593,66.646,8.268Zm-17,2.468v-.6a4.319,4.319,0,0,1-2,.6c-1.045,0-2.909-.386-2.909-2.274a2.542,2.542,0,0,1,.823-1.948,2.83,2.83,0,0,1,2.067-.742h1.917V4.746c0-.509-.654-1.166-1.889-.954a7.884,7.884,0,0,0-2.051.646l.144-1.166a7.836,7.836,0,0,1,2.612-.581,2.509,2.509,0,0,1,1.765.629,2.26,2.26,0,0,1,.763,1.638v5.775ZM46,8.268c0,.675.042,1.573,1.554,1.573a1.949,1.949,0,0,0,1.477-.575,1.745,1.745,0,0,0,.492-1.442V6.568H48.153C46.476,6.57,46,7.593,46,8.268Zm26.46,1.716.415-1.032a4.658,4.658,0,0,0,2.237.609c1.264,0,1.7-.733,1.7-1.138s-.29-.829-1.781-1.157-2.361-1.119-2.361-2.43A2.384,2.384,0,0,1,75.3,2.772a5.846,5.846,0,0,1,2.371.554l-.3.929a5.807,5.807,0,0,0-1.724-.385c-.746,0-1.554.308-1.554.945s.5,1.076,1.617,1.292,2.446,1,2.446,2.146a2.808,2.808,0,0,1-2.881,2.412,6.312,6.312,0,0,1-2.817-.681Zm-16.1.664V5.139c0-.37-.025-1.041-1.118-1.041s-2.063.763-2.063,1.25v5.3H51.758V2.9L53.1,2.639V3.658a3.282,3.282,0,0,1,2.387-1,2.4,2.4,0,0,1,2.361,1.99v5.995ZM36.839,10.63V.07h3.575c1.733,0,3.419.9,3.419,2.4a3.383,3.383,0,0,1-1.554,2.488,2.786,2.786,0,0,1,2.052,2.633,3.057,3.057,0,0,1-2.667,3.038ZM38.3,9.4h2.55a1.957,1.957,0,0,0,1.424-.415,1.836,1.836,0,0,0,.215-2.629,1.959,1.959,0,0,0-1.345-.639H38.292Zm.046-4.9h2.284a1.775,1.775,0,0,0,1.259-.457,1.6,1.6,0,0,0,.528-1.178,1.658,1.658,0,0,0-.6-1.186,1.84,1.84,0,0,0-1.313-.419h-2.16ZM58.77,10.625V.047h1.589V5.741h.323L63.421,2.5h2.014L61.878,6.146l3.928,4.41H63.633L60.687,6.528h-.348v4.1ZM0,10.621V9.027L4.828,1.672H.415L.912,0H7.461V1.651L2.611,9.027H7.438l-.684,1.594Zm78.937-.005V2.877h1.336v7.739Zm-70.612,0V2.877h1.787v7.739ZM31.96,10.6A1.621,1.621,0,0,1,30.251,9.1v-5h-.84V2.905h.9V.851h1.727V2.934h1.989l-.449,1.187H32.066V8.565c0,.579.112.909.7.909h1.026V10.6ZM11.7,10.6v-7.7h1.486v.868a2.827,2.827,0,0,1,1.228-.694,3.161,3.161,0,0,1,1.342-.023V4.537H14.587c-.472,0-1.342.6-1.342,1.18V10.6ZM8.082,1.246a1.118,1.118,0,0,1,2.228,0,1.118,1.118,0,0,1-2.228,0Z" transform="translate(12.727 5.922)" fill="#f2f6ff"/>
        <path id="Symbol-4" data-name="Symbol" d="M4.61,15.708l.454-.375V13.8l-.454.375V10.866l.454-.368V8.964l-.454.368V6.023L5.488,5.3l1.318-1.09L8.555,2.777V8.863a.912.912,0,0,1-.336.768.8.8,0,0,1,.336.591V15.77L6.805,17.205l-1.318,1.09-.878.721Zm2.87-3.89-.673.545-1.119.928v1.535L6.807,13.9l.776-.637a.713.713,0,0,0,.352-.623v-.705c0-.154-.079-.233-.19-.233a.431.431,0,0,0-.266.114Zm0-4.843-.673.545-1.119.929V9.983l1.119-.928.776-.638A.712.712,0,0,0,7.935,7.8v-.7c0-.154-.079-.233-.19-.233a.429.429,0,0,0-.266.118ZM3.066,18.295,0,15.77V12.462l.833-.852L0,10.928V7.62L2.612,9.769,3.066,9.3l.366-.383-.366-.3L0,6.085V2.777L3.066,5.3l.871.721V9.331l-.82.852.82.683v3.308l-.871-.721L1.339,12.025l-.827.852,2.554,2.11.871.721v3.308ZM4.61,1.473,5.488.736,6.359,0V1.181l-.871.736-.256.216V3.369l.256-.215.871-.73V3.605l-.871.738-.878.736ZM3.066,4.407l-.527-.453V2.77l.22.188v-1.3l-.564-.476V0l.871.736.871.737V2.655L3.374,2.18v1.3l.227.188V4.857Z" fill="#e31e27"/>
      </g>
    </g>
    <g id="Akbank-2" data-name="Akbank">
      <rect id="icon_bg-8" data-name="icon_bg" width="76" height="20" fill="#fff" opacity="0"/>
      <g id="Akbank_Logo-3" data-name="Akbank_Logo" transform="translate(0.5 7.2)">
        <path id="Akbank_Logo-4" data-name="Akbank_Logo" d="M46.314,9.737,45.54,8.1H40.408l-.764,1.6H36.416L40.934.056h4.051L49.4,9.737ZM41.576,5.63h2.761L42.949,2.787l-.01-.023ZM30.7,9.737H25.661c-.01-3.227-.01-6.465-.019-9.7h8.381A2.161,2.161,0,0,1,35.776,1.7a3.505,3.505,0,0,1-.621,3.116,2.665,2.665,0,0,1,.9,2.156v.384a4.284,4.284,0,0,1-.057.5c-.186,1.069-.9,1.881-1.475,1.881ZM28.289,6.025V7.041h4.479a.5.5,0,0,0,.459-.519.487.487,0,0,0-.459-.508H30.694ZM30.7,2.532l-2.408.012V3.554h4.367a.487.487,0,0,0,.449-.519.487.487,0,0,0-.449-.519ZM9.893,9.737,9.127,8.1H3.992L3.231,9.7H0L4.521.056H8.568l4.421,9.68ZM5.161,5.63H7.913L6.537,2.787l-.014-.022ZM57.016,9.719,52.841,3.2V9.7H49.888V.056L54.418.034,58.68,6.816V.056H61.6V9.714Zm12.788,0L66.249,6.25h-.974V9.713H62.361V.033l2.81.023V3.43h1.108L69.566,0h4.12L69.012,4.932,74,9.713Zm-48.933,0L17.318,6.25h-.974V9.713H13.423V.033l2.81.023V3.43h1.119L20.633,0h4.12L20.07,4.932l5,4.783Z" transform="translate(0 0)" fill="#ef3125"/>
      </g>
    </g>
  </g>
</svg>
