<svg id="icons_spite_darksmalliconcolored" xmlns="http://www.w3.org/2000/svg" width="160" height="50" viewBox="0 0 160 50">
  <g id="_20" data-name="20" transform="translate(0 30)">
    <g id="NotFullScreen" transform="translate(60)">
      <rect id="icon_bg" width="20" height="20" fill="#fff" opacity="0"/>
      <g id="Full_screen_icon" transform="translate(1.675 1.425)">
        <g id="Ellipse_1" data-name="Ellipse 1" transform="translate(4.325 4.575)" fill="none" stroke="#d6596d" stroke-width="1.5">
          <circle cx="4.07" cy="4.07" r="4.07" stroke="none"/>
          <circle cx="4.07" cy="4.07" r="3.32" fill="none"/>
        </g>
        <path id="Path_9500" data-name="Path 9500" d="M4.834,3.99l-2.8-2.8H4.416A.6.6,0,0,0,4.416,0H.6A.6.6,0,0,0,0,.6V4.416a.6.6,0,0,0,1.193,0V2.038l2.8,2.8a.6.6,0,0,0,.84-.848Z" transform="translate(5.013 5.013) rotate(180)" fill="#92a4c5"/>
        <path id="Path_9501" data-name="Path 9501" d="M4.416,3.819H2.038l2.8-2.8A.583.583,0,0,0,5,.6.6.6,0,0,0,3.989.18l-2.8,2.8V.6A.6.6,0,0,0,0,.6V4.416a.6.6,0,0,0,.37.551A.607.607,0,0,0,.6,5.013H4.416a.6.6,0,1,0,0-1.193Z" transform="translate(5.013 17.23) rotate(180)" fill="#92a4c5"/>
        <path id="Path_9502" data-name="Path 9502" d="M5.013.6A.6.6,0,0,0,3.819.6V2.975l-2.8-2.8a.6.6,0,0,0-.838.847l2.8,2.8H.6a.6.6,0,1,0,0,1.193H4.416a.6.6,0,0,0,.6-.6Z" transform="translate(17.23 17.23) rotate(180)" fill="#92a4c5"/>
        <path id="Path_9503" data-name="Path 9503" d="M5.013.6a.6.6,0,0,0-.6-.6H.6a.6.6,0,1,0,0,1.193H2.975l-2.8,2.8a.6.6,0,0,0-.015.83l.015.014a.608.608,0,0,0,.841,0l2.8-2.8V4.416a.6.6,0,0,0,1.193,0Z" transform="translate(17.23 5.013) rotate(180)" fill="#92a4c5"/>
      </g>
    </g>
    <g id="ShowFullScreen" transform="translate(40)">
      <rect id="icon_bg-2" data-name="icon_bg" width="20" height="20" fill="#fff" opacity="0"/>
      <g id="Full_screen_icon-2" data-name="Full_screen_icon" transform="translate(1.675 1.425)">
        <g id="Ellipse_1-2" data-name="Ellipse 1" transform="translate(4.325 4.575)" fill="none" stroke="#d6596d" stroke-width="1.5">
          <circle cx="4.07" cy="4.07" r="4.07" stroke="none"/>
          <circle cx="4.07" cy="4.07" r="3.32" fill="none"/>
        </g>
        <path id="Path_9500-2" data-name="Path 9500" d="M7.209,6.365l-2.8-2.8H6.791a.6.6,0,0,0,0-1.193H2.972a.6.6,0,0,0-.6.6V6.791a.6.6,0,0,0,1.193,0V4.413l2.8,2.8a.6.6,0,0,0,.84-.848Z" transform="translate(-2.375 -2.375)" fill="#92a4c5"/>
        <path id="Path_9501-2" data-name="Path 9501" d="M6.791,20.194H4.413l2.8-2.8a.583.583,0,0,0,.163-.42.6.6,0,0,0-1.012-.418l-2.8,2.8V16.972a.6.6,0,0,0-1.193,0v3.819a.6.6,0,0,0,.37.551.607.607,0,0,0,.227.046H6.791a.6.6,0,1,0,0-1.193Z" transform="translate(-2.375 -4.158)" fill="#92a4c5"/>
        <path id="Path_9502-2" data-name="Path 9502" d="M21.388,16.972a.6.6,0,0,0-1.194,0V19.35l-2.8-2.8a.6.6,0,0,0-.838.847l2.8,2.8H16.972a.6.6,0,1,0,0,1.193h3.819a.6.6,0,0,0,.6-.6Z" transform="translate(-4.158 -4.158)" fill="#92a4c5"/>
        <path id="Path_9503-2" data-name="Path 9503" d="M21.388,2.972a.6.6,0,0,0-.6-.6H16.972a.6.6,0,1,0,0,1.193H19.35l-2.8,2.8a.6.6,0,0,0-.015.83l.015.014a.608.608,0,0,0,.841,0l2.8-2.8V6.791a.6.6,0,0,0,1.193,0Z" transform="translate(-4.158 -2.375)" fill="#92a4c5"/>
      </g>
    </g>
    <g id="Notification" transform="translate(20)">
      <rect id="icon_bg-3" data-name="icon_bg" width="20" height="20" fill="#fff" opacity="0"/>
      <g id="Notification-2" data-name="Notification" transform="translate(2.5 3)">
        <path id="Path_9493" data-name="Path 9493" d="M15.667,8.033v6.228a1.406,1.406,0,0,1-1.406,1.406H2.073A1.406,1.406,0,0,1,.667,14.261h0V2.073A1.406,1.406,0,0,1,2.073.667h5.9" transform="translate(-0.667 -0.667)" fill="none" stroke="#92a4c5" stroke-linecap="round" stroke-miterlimit="10" stroke-width="1.2"/>
        <line id="Line_43" data-name="Line 43" x2="8.391" transform="translate(3.319 11.5)" fill="none" stroke="#92a4c5" stroke-linecap="round" stroke-miterlimit="10" stroke-width="1.2"/>
        <line id="Line_42" data-name="Line 42" x2="7.181" transform="translate(3.319 9)" fill="none" stroke="#92a4c5" stroke-linecap="round" stroke-miterlimit="10" stroke-width="1.2"/>
        <line id="Line_51" data-name="Line 51" x2="5.5" transform="translate(3.319 6.5)" fill="none" stroke="#92a4c5" stroke-linecap="round" stroke-miterlimit="10" stroke-width="1.2"/>
        <line id="Line_55" data-name="Line 55" x2="4.181" transform="translate(3.319 4)" fill="none" stroke="#92a4c5" stroke-linecap="round" stroke-miterlimit="10" stroke-width="1.2"/>
      </g>
    </g>
    <g id="Support">
      <rect id="icon_bg-4" data-name="icon_bg" width="20" height="20" fill="#fff" opacity="0"/>
      <g id="Support-2" data-name="Support" transform="translate(0.93 0.93)">
        <g id="Pink" transform="translate(2.185 2.124)">
          <path id="Path_9570" data-name="Path 9570" d="M45.092,10.236l1.808,2.3.708-.574,2.5-2.544L48.035,7.558Z" transform="translate(-36.323 -7.539)" fill="#eb4252"/>
          <path id="Path_9571" data-name="Path 9571" d="M45.092,10.236l1.808,2.3.708-.574,2.5-2.544L48.035,7.558Z" transform="translate(-45.092 1.229)" fill="#eb4252"/>
          <path id="Path_9572" data-name="Path 9572" d="M0,2.678l1.808,2.3.708-.574,2.5-2.544L2.943,0Z" transform="translate(13.769 8.769) rotate(90)" fill="#eb4252"/>
          <path id="Path_9573" data-name="Path 9573" d="M0,2.678l1.808,2.3.708-.574,2.5-2.544L2.943,0Z" transform="translate(5) rotate(90)" fill="#eb4252"/>
        </g>
        <path id="Circle" d="M48.084,7.767a9.072,9.072,0,1,0,2.657,6.416A9.084,9.084,0,0,0,48.084,7.767Zm-10.7,8.041-2.547,2.54a8.056,8.056,0,0,1,0-8.33l2.547,2.549A4.568,4.568,0,0,0,37.385,15.807Zm.524.993a4.563,4.563,0,0,0,1.146,1.146l-2.439,2.437a8.07,8.07,0,0,1-1.147-1.149ZM35.469,9.129a7.957,7.957,0,0,1,.543-.6c.189-.188.392-.371.6-.545l2.438,2.439a4.6,4.6,0,0,0-1.145,1.149Zm7.818.77a4.6,4.6,0,0,0-3.24,0L37.5,7.355a8.058,8.058,0,0,1,8.331,0Zm4.582-.769L45.43,11.567a4.57,4.57,0,0,0-1.148-1.146l2.438-2.44A8.076,8.076,0,0,1,47.869,9.129Zm-8.68,2.57a3.508,3.508,0,1,1,2.481,5.989h0a3.485,3.485,0,0,1-2.479-1.026l0,0A3.514,3.514,0,0,1,39.189,11.7Zm-.061,5.025v0h0l0,0Zm.923,1.745a4.573,4.573,0,0,0,3.24,0l2.542,2.544a8.06,8.06,0,0,1-8.331,0Zm6.669,1.913-2.436-2.437A4.607,4.607,0,0,0,45.43,16.8l2.439,2.434c-.167.2-.351.408-.546.605S46.93,20.211,46.72,20.383Zm-.762-7.82L48.5,10.018a8.052,8.052,0,0,1,0,8.33L45.958,15.8A4.592,4.592,0,0,0,45.958,12.563Z" transform="translate(-32.6 -5.114)" fill="#92a4c5"/>
        <g id="Pink-2" data-name="Pink" transform="translate(2.223 2.239)">
          <path id="Path_9562" data-name="Path 9562" d="M49.664,9.7l-2.438,2.438v0a5.753,5.753,0,0,1,.552,1.08c-.01-.027-.012-.056-.023-.083L50.3,10.59A8.5,8.5,0,0,0,49.664,9.7Z" transform="translate(-36.623 -7.917)" fill="#eb4252"/>
          <path id="Path_9563" data-name="Path 9563" d="M48.219,8.3l-.025-.022a6.251,6.251,0,0,0-.861-.611c0,.048,0,0-.005.008l-2.545,2.544a5.794,5.794,0,0,1,1.064.58c-.025-.018-.044-.04-.068-.058L48.215,8.3S48.22,8.3,48.219,8.3Z" transform="translate(-36.322 -7.667)" fill="#eb4252"/>
          <path id="Path_9564" data-name="Path 9564" d="M37.168,8.3l2.438,2.437v0a5.76,5.76,0,0,1,1.08-.552c-.028.01-.057.013-.084.024L38.058,7.669A8.37,8.37,0,0,0,37.168,8.3Z" transform="translate(-35.385 -7.667)" fill="#eb4252"/>
          <path id="Path_9565" data-name="Path 9565" d="M35.768,9.695l-.021.026a6.138,6.138,0,0,0-.612.861c.048,0,0,0,.008,0l2.544,2.546a5.816,5.816,0,0,1,.58-1.065c-.018.025-.04.045-.057.069L35.77,9.7S35.769,9.695,35.768,9.695Z" transform="translate(-35.135 -7.917)" fill="#eb4252"/>
          <path id="Path_9566" data-name="Path 9566" d="M49.681,20.735,47.243,18.3v0a5.754,5.754,0,0,0,.552-1.08c-.01.027-.012.056-.023.083l2.543,2.543A8.5,8.5,0,0,1,49.681,20.735Z" transform="translate(-36.625 -8.843)" fill="#eb4252"/>
          <path id="Path_9567" data-name="Path 9567" d="M48.236,22.189l-.025.022a6.251,6.251,0,0,1-.861.611c0-.048,0,0-.005-.008L44.8,20.271a5.794,5.794,0,0,0,1.064-.58c-.025.018-.044.04-.068.058l2.438,2.439S48.237,22.189,48.236,22.189Z" transform="translate(-36.324 -9.146)" fill="#eb4252"/>
          <path id="Path_9568" data-name="Path 9568" d="M37.173,22.183l2.438-2.437h0a5.728,5.728,0,0,0,1.08.552c-.027-.01-.056-.013-.084-.023l-2.542,2.542A8.246,8.246,0,0,1,37.173,22.183Z" transform="translate(-35.385 -9.153)" fill="#eb4252"/>
          <path id="Path_9569" data-name="Path 9569" d="M35.772,20.739l-.021-.025a6.267,6.267,0,0,1-.612-.862c.048,0,0,0,.008,0L37.692,17.3a5.755,5.755,0,0,0,.579,1.064c-.018-.025-.04-.044-.057-.069l-2.439,2.439S35.773,20.74,35.772,20.739Z" transform="translate(-35.135 -8.853)" fill="#eb4252"/>
        </g>
      </g>
    </g>
  </g>
  <g id="_16" data-name="16" transform="translate(0 14)">
    <g id="Check" transform="translate(144)">
      <rect id="icon_bg-5" data-name="icon_bg" width="16" height="16" fill="#fff" opacity="0"/>
      <g id="Okey" transform="translate(0.5 1.597)">
        <g id="Okey_icon" transform="translate(-14 -15)" fill="rgba(21,181,126,0.2)" opacity="0.998">
          <path d="M 21.5 28.5 C 17.64019012451172 28.5 14.5 25.35980987548828 14.5 21.5 C 14.5 17.64019012451172 17.64019012451172 14.5 21.5 14.5 C 25.35980987548828 14.5 28.5 17.64019012451172 28.5 21.5 C 28.5 25.35980987548828 25.35980987548828 28.5 21.5 28.5 Z" stroke="none"/>
          <path d="M 21.5 15 C 17.91776084899902 15 15 17.91776084899902 15 21.5 C 15 25.08223915100098 17.91776084899902 28 21.5 28 C 25.08223915100098 28 28 25.08223915100098 28 21.5 C 28 17.91776084899902 25.08223915100098 15 21.5 15 M 20.51162910461426 23.86897087097168 C 20.41040992736816 23.86897087097168 20.30938911437988 23.84000015258789 20.22266006469727 23.76775932312012 L 18.40266036987305 22.23673057556152 C 18.21489906311035 22.07776069641113 18.1859302520752 21.78897094726562 18.34490013122559 21.60103034973145 C 18.43425178527832 21.4954948425293 18.56464767456055 21.440185546875 18.69503211975098 21.44017791748047 C 18.7966194152832 21.44017219543457 18.89818954467773 21.47373580932617 18.98040962219238 21.54327011108398 L 20.4826602935791 22.81448936462402 L 23.99266052246094 19.26103019714355 C 24.07929420471191 19.17439460754395 24.19485473632812 19.13107681274414 24.31041526794434 19.13107681274414 C 24.42597579956055 19.13107681274414 24.54153442382812 19.17439460754395 24.62817001342773 19.26103019714355 C 24.8016300201416 19.43449020385742 24.8016300201416 19.72327041625977 24.62817001342773 19.89673042297363 L 20.82938957214355 23.73896980285645 C 20.74266052246094 23.82551002502441 20.62714004516602 23.86897087097168 20.51162910461426 23.86897087097168 M 21.5 14 C 25.6355094909668 14 29 17.3644905090332 29 21.5 C 29 25.6355094909668 25.6355094909668 29 21.5 29 C 17.3644905090332 29 14 25.6355094909668 14 21.5 C 14 17.3644905090332 17.3644905090332 14 21.5 14 Z" stroke="none" fill="#15b57e"/>
        </g>
      </g>
    </g>
    <g id="Question" transform="translate(128)">
      <rect id="icon_bg-6" data-name="icon_bg" width="16" height="16" fill="#fff" opacity="0"/>
      <g id="Question-2" data-name="Question" transform="translate(-611.985 -798.985)">
        <path id="Union_4" data-name="Union 4" d="M-264.6-82.175a1.057,1.057,0,0,1,1.057-1.058,1.057,1.057,0,0,1,1.058,1.058,1.057,1.057,0,0,1-1.058,1.057A1.057,1.057,0,0,1-264.6-82.175Zm.264-1.587a2.445,2.445,0,0,1,1.428-2.432,1.842,1.842,0,0,0,.476-.317.673.673,0,0,0,.106-.74,1.238,1.238,0,0,0-1.217-.74,1.285,1.285,0,0,0-1.321,1.216l-1.586-.212a2.922,2.922,0,0,1,2.907-2.591,2.891,2.891,0,0,1,2.7,1.692,2.239,2.239,0,0,1-.423,2.485,4.07,4.07,0,0,1-.846.582,1.033,1.033,0,0,0-.634,1.057Z" transform="translate(883.537 892.462)" fill="#92a4c5"/>
        <path id="Question_icon" d="M4.794,4.794a7.407,7.407,0,1,0,10.475,0A7.407,7.407,0,0,0,4.794,4.794Z" transform="translate(609.97 796.97)" fill="none" stroke="rgba(146,164,197,0.5)" stroke-width="1"/>
      </g>
    </g>
    <g id="Info" transform="translate(112)">
      <rect id="icon_bg-7" data-name="icon_bg" width="16" height="16" fill="#fff" opacity="0"/>
      <g id="info_icon" transform="translate(-611.985 -798.985)">
        <path id="Path_9553" data-name="Path 9553" d="M10.993,6.139a1.115,1.115,0,0,1,0,2.229,1.124,1.124,0,0,1-1.115-1.13A1.108,1.108,0,0,1,10.993,6.139ZM12.566,13.6a.73.73,0,0,1-.153.26,1.99,1.99,0,0,1-1.466.657,4.8,4.8,0,0,1-.809-.046,1.181,1.181,0,0,1-.931-1.191l.183-1.191c.122-.687.244-1.389.366-2.076,0-.046.015-.092.015-.137,0-.29-.092-.4-.382-.427a3.057,3.057,0,0,1-.366-.061.269.269,0,0,1-.2-.275c.015-.122.092-.2.244-.229a1.4,1.4,0,0,1,.26-.015h2.107c.26,0,.412.122.412.382a3.065,3.065,0,0,1-.076.641c-.137.794-.29,1.573-.427,2.366-.046.26-.107.519-.137.779a1.079,1.079,0,0,0,.031.382.3.3,0,0,0,.336.244,1.411,1.411,0,0,0,.412-.122,2.846,2.846,0,0,1,.305-.153C12.474,13.33,12.612,13.436,12.566,13.6Z" transform="translate(609.285 796.797)" fill="#92a4c5"/>
        <path id="info_icon-2" data-name="info_icon" d="M4.794,4.794a7.407,7.407,0,1,0,10.475,0A7.407,7.407,0,0,0,4.794,4.794Z" transform="translate(609.97 796.97)" fill="none" stroke="rgba(146,164,197,0.5)" stroke-width="1"/>
      </g>
    </g>
    <g id="Bell" transform="translate(96)">
      <rect id="icon_bg-8" data-name="icon_bg" width="16" height="16" fill="#fff" opacity="0"/>
      <path id="Union_3" data-name="Union 3" d="M-12338.542,10187.673h-2.515a1.475,1.475,0,0,1-1.512-1.435v-.257a2.093,2.093,0,0,1,.669-1.524l.2-.186a2.358,2.358,0,0,0,.731-1.5l.22-2.766a4.1,4.1,0,0,1,3.72-3.745v-.512a.489.489,0,0,1,.5-.477.491.491,0,0,1,.5.477v.512a4.1,4.1,0,0,1,3.718,3.754l.223,2.757a2.336,2.336,0,0,0,.729,1.5l.2.186a2.1,2.1,0,0,1,.669,1.524v.257a1.474,1.474,0,0,1-1.512,1.435h-2.516a1.962,1.962,0,0,1-2.014,1.9A1.962,1.962,0,0,1-12338.542,10187.673Zm2.014.95a.98.98,0,0,0,1.007-.95h-2.014A.981.981,0,0,0-12336.528,10188.623Zm-3.215-8.583-.242,2.794a3.264,3.264,0,0,1-1.007,2.109l-.2.186a1.167,1.167,0,0,0-.374.853v.257a.5.5,0,0,0,.5.48h9.058a.5.5,0,0,0,.5-.48v-.257a1.182,1.182,0,0,0-.394-.883l-.2-.184a3.255,3.255,0,0,1-1.007-2.109l-.223-2.766a3.138,3.138,0,0,0-3.036-2.878c-.061,0-.12,0-.181,0A3.153,3.153,0,0,0-12339.743,10180.04Zm8.63-.434a5.25,5.25,0,0,0-1.105-2.407.532.532,0,0,1,.114-.74.515.515,0,0,1,.688.068,6.294,6.294,0,0,1,1.329,2.893.531.531,0,0,1-.4.62h-.105A.529.529,0,0,1-12331.113,10179.606Zm-11.455.434a.524.524,0,0,1-.422-.613,6.332,6.332,0,0,1,1.332-2.906.52.52,0,0,1,.737-.068.534.534,0,0,1,.068.747,5.269,5.269,0,0,0-1.1,2.4.525.525,0,0,1-.512.44Z" transform="translate(12344.499 -10174.42)" fill="#92a4c5" stroke="rgba(0,0,0,0)" stroke-miterlimit="10" stroke-width="1"/>
    </g>
    <g id="Change" transform="translate(80)">
      <rect id="icon_bg-9" data-name="icon_bg" width="16" height="16" fill="#fff" opacity="0"/>
      <path id="Change-2" data-name="Change" d="M-9267.545,7930.983a.474.474,0,0,1-.468-.475v-2.578a.511.511,0,0,1,.021-.149l0,0h0a.467.467,0,0,1,.114-.186.461.461,0,0,1,.335-.14h2.578a.472.472,0,0,1,.472.475.474.474,0,0,1-.472.475h-1.166a5.835,5.835,0,0,0,6.207-.23,5.864,5.864,0,0,0,1.959-7.455c.02.01.03.007.02-.014a.45.45,0,0,1-.059-.226.473.473,0,0,1,.473-.473.467.467,0,0,1,.4.233c.012.025.03.049.042.074a.5.5,0,0,1,.032.166c0,.025,0-.019,0-.1a6.854,6.854,0,0,1-.915,7.28,6.836,6.836,0,0,1-9.1,1.271v1.582a.471.471,0,0,1-.14.337.473.473,0,0,1-.331.135Zm-1.824-4.672c-.012-.025-.03-.051-.042-.077a.486.486,0,0,1-.032-.165c0-.023,0,.021,0,.1a6.858,6.858,0,0,1,.912-7.282,6.836,6.836,0,0,1,9.1-1.268v-1.582a.47.47,0,0,1,.143-.337.469.469,0,0,1,.33-.135h.007a.472.472,0,0,1,.468.472v2.581a.52.52,0,0,1-.021.146l0,0h0a.5.5,0,0,1-.114.188.478.478,0,0,1-.335.14h-2.577a.473.473,0,0,1-.473-.475.473.473,0,0,1,.473-.475h1.163a5.836,5.836,0,0,0-6.207.23,5.864,5.864,0,0,0-1.957,7.452c-.021-.007-.03,0-.019.016a.451.451,0,0,1,.056.224.47.47,0,0,1-.47.472A.471.471,0,0,1-9269.369,7926.311Z" transform="translate(9271.348 -7915.317)" fill="#687ca2" stroke="rgba(0,0,0,0)" stroke-miterlimit="10" stroke-width="1"/>
    </g>
    <g id="Add" transform="translate(64)">
      <rect id="icon_bg-10" data-name="icon_bg" width="16" height="16" fill="#fff" opacity="0"/>
      <path id="Add-2" data-name="Add" d="M6.635,13.981A7,7,0,0,1,0,7.02L0,7A7.008,7.008,0,0,1,7,0l.02,0a7,7,0,0,1,6.961,6.633c.007.122.019.242.019.365s-.012.27-.02.4A7,7,0,0,1,7.4,13.98c-.134.008-.268.02-.4.02S6.757,13.988,6.635,13.981ZM.945,7A6.056,6.056,0,1,0,7,.945,6.063,6.063,0,0,0,.945,7Zm5.584,3.653V7.472H3.347a.472.472,0,0,1,0-.944H6.528V3.348a.472.472,0,0,1,.944,0V6.528h3.181a.472.472,0,1,1,0,.944H7.472v3.181a.472.472,0,1,1-.944,0Z" transform="translate(1 1)" fill="#92a4c5" stroke="rgba(0,0,0,0)" stroke-miterlimit="10" stroke-width="1"/>
    </g>
    <g id="Transfer" transform="translate(48)">
      <rect id="icon_bg-11" data-name="icon_bg" width="16" height="16" fill="#fff" opacity="0"/>
      <path id="Transfer-2" data-name="Transfer" d="M1.4,14a.466.466,0,0,1-.466-.467V12.6a.467.467,0,0,1,.933,0v.467H9.333V6.26L6.807,3.734H1.867v1.4a.467.467,0,1,1-.933,0V3.267A.466.466,0,0,1,1.4,2.8H7a.47.47,0,0,1,.33.136l2.8,2.8a.472.472,0,0,1,.136.33v7.466A.467.467,0,0,1,9.8,14Zm1.149-2.363L.136,9.225a.467.467,0,0,1,0-.66L2.55,6.151a.466.466,0,0,1,.66.66l-1.6,1.6H5.545a.467.467,0,0,1,0,.933H1.577l1.632,1.633a.466.466,0,0,1-.66.66Zm9.584-.9v-7H9.8a.467.467,0,0,1-.466-.467V.933h-4.2a.467.467,0,0,1,0-.933H9.8a.471.471,0,0,1,.331.137l2.8,2.8a.47.47,0,0,1,.136.33v7.466a.467.467,0,1,1-.933,0ZM10.267,2.8h1.209L10.267,1.593Z" transform="translate(1.4 1)" fill="#92a4c5" stroke="rgba(0,0,0,0)" stroke-miterlimit="10" stroke-width="1"/>
    </g>
    <g id="Copy" transform="translate(32)">
      <rect id="icon_bg-12" data-name="icon_bg" width="16" height="16" fill="#fff" opacity="0"/>
      <path id="Copy-2" data-name="Copy" d="M1.4,14a.467.467,0,0,1-.467-.467V12.6a.467.467,0,0,1,.933,0v.467H9.334V6.26L6.807,3.734H1.867v1.4a.467.467,0,1,1-.933,0V3.267A.467.467,0,0,1,1.4,2.8H7a.47.47,0,0,1,.33.136l2.8,2.8a.469.469,0,0,1,.137.33v7.466A.467.467,0,0,1,9.8,14Zm1.4-2.363a.466.466,0,0,1,0-.66l1.6-1.6H.467a.467.467,0,1,1,0-.934H4.435L2.8,6.811a.466.466,0,1,1,.66-.66L5.875,8.564a.466.466,0,0,1,0,.66L3.462,11.638a.466.466,0,0,1-.66,0Zm9.331-.9v-7H9.8a.467.467,0,0,1-.466-.467V.933h-4.2a.467.467,0,0,1,0-.933H9.8a.467.467,0,0,1,.33.137l2.8,2.8a.467.467,0,0,1,.137.33v7.466a.467.467,0,1,1-.933,0ZM10.267,2.8h1.209L10.267,1.593Z" transform="translate(1.4 1)" fill="#92a4c5" stroke="rgba(0,0,0,0)" stroke-miterlimit="10" stroke-width="1"/>
    </g>
    <g id="QR" transform="translate(16)">
      <rect id="icon_bg-13" data-name="icon_bg" width="16" height="16" fill="#fff" opacity="0"/>
      <path id="Qr-2" d="M29.732,29V27.731H31V29Zm-2.549,0V27.731h1.268V29Zm-2.525,0V22.657h1.2V23.9h1.27V22.655H28.46v1.269h1.271V22.655H31v3.8H29.782V25.19H28.514v1.267H27.193V25.188H25.924V29ZM17,29V22.657h6.343V29Zm1.267-1.281h3.806V23.926H18.267Zm.647-.636v-2.51h2.51v2.51Zm5.744-5.742V15H31v6.343Zm1.267-1.269h3.807v-3.8H25.925ZM17,21.341V15h6.343v6.343Zm1.267-1.269h3.806v-3.8H18.267Zm8.305-.649V16.915h2.51v2.508Zm-7.658,0V16.915h2.51v2.508Z" transform="translate(-16 -14)" fill="#92a4c5"/>
    </g>
    <g id="Wallet">
      <rect id="icon_bg-14" data-name="icon_bg" width="16" height="16" fill="#fff" opacity="0"/>
      <path id="Wallet-2" data-name="Wallet" d="M1.274,12H1.268A1.276,1.276,0,0,1,0,10.716V1.282A1.3,1.3,0,0,1,.374.374,1.285,1.285,0,0,1,1.274,0H11.546a1.285,1.285,0,0,1,.9.374,1.267,1.267,0,0,1,.373.894v.2a1.3,1.3,0,0,1,.794.37,1.279,1.279,0,0,1,.371.908V4.141a.564.564,0,0,1,.388.567l0,4.022a.573.573,0,0,1-.4.57s0,.008,0,.012v1.4a1.3,1.3,0,0,1-.374.907,1.265,1.265,0,0,1-.9.375ZM.857.866a.6.6,0,0,0-.173.42v9.437a.59.59,0,0,0,.589.59H12.706a.589.589,0,0,0,.418-.175.6.6,0,0,0,.174-.418v-1.4H9.532A1.968,1.968,0,0,1,7.8,7.942a3.355,3.355,0,0,1,.01-2.471A1.944,1.944,0,0,1,9.5,4.124l3.8,0V2.748a.592.592,0,0,0-.174-.42.582.582,0,0,0-.417-.173H1.742a.346.346,0,0,1,0-.691H12.129V1.273a.558.558,0,0,0-.172-.407A.584.584,0,0,0,11.54.693H1.271A.585.585,0,0,0,.857.866ZM8.514,5.719a2.665,2.665,0,0,0-.009,1.975,1.226,1.226,0,0,0,1.061.876l4.06,0,0-3.7H9.532A1.207,1.207,0,0,0,8.514,5.719Zm1.1,1a.936.936,0,0,1,1.872,0h0a.936.936,0,0,1-1.872,0Zm.616,0a.32.32,0,0,0,.32.32h.01a.316.316,0,0,0,.311-.32.32.32,0,0,0-.641,0Z" transform="translate(1 2)" fill="#92a4c5" stroke="rgba(0,0,0,0)" stroke-miterlimit="10" stroke-width="1"/>
    </g>
  </g>
  <g id="_14" data-name="14">
    <g id="ShowHide" transform="translate(42)">
      <rect id="icon_bg-15" data-name="icon_bg" width="14" height="14" fill="#fff" opacity="0"/>
      <g id="eye_hidden" transform="translate(1 3)">
        <path id="Path" d="M28.964,12.46A2.544,2.544,0,1,0,31.508,15,2.544,2.544,0,0,0,28.964,12.46Z" transform="translate(-22.76 -10.769)" fill="none" stroke="#92a4c5" stroke-miterlimit="10" stroke-width="1" fill-rule="evenodd"/>
        <path id="Path-2" data-name="Path" d="M6.744.5A6.652,6.652,0,0,0,.54,4.734a6.663,6.663,0,0,0,12.41,0A6.648,6.648,0,0,0,6.744.5Z" transform="translate(-0.54 -0.5)" fill="none" stroke="#92a4c5" stroke-miterlimit="10" stroke-width="1" fill-rule="evenodd"/>
      </g>
    </g>
    <g id="Detail" transform="translate(28)">
      <rect id="icon_bg-16" data-name="icon_bg" width="14" height="14" fill="#fff" opacity="0"/>
      <path id="Detail-2" data-name="Detail" d="M10.185,10.761,8.7,9.267a2.527,2.527,0,0,1-1.287.363A2.686,2.686,0,0,1,4.78,6.9,2.686,2.686,0,0,1,7.41,4.165,2.686,2.686,0,0,1,10.04,6.9a2.782,2.782,0,0,1-.6,1.723l1.417,1.422a.515.515,0,0,1,.012.707.471.471,0,0,1-.68.012ZM5.742,6.9A1.7,1.7,0,0,0,7.41,8.631a1.609,1.609,0,0,0,.994-.35v0l.006,0A1.749,1.749,0,0,0,9.078,6.9a1.669,1.669,0,1,0-3.337,0ZM.481,10.572a.491.491,0,0,1-.481-.5V.5A.49.49,0,0,1,.481,0h9.21a.49.49,0,0,1,.481.5V3.691a.482.482,0,1,1-.962,0V1H.962V9.572H4.777a.5.5,0,0,1,0,1ZM2.324,8.659a.5.5,0,0,1,0-1H3.552a.5.5,0,0,1,0,1Zm0-1.917a.5.5,0,0,1,0-1H3.552a.5.5,0,0,1,0,1Zm0-1.915a.5.5,0,0,1,0-1H4.166a.5.5,0,0,1,0,1Zm0-1.915a.5.5,0,0,1,0-1H7.849a.5.5,0,0,1,0,1Z" transform="translate(2 2.4)" fill="#92a4c5" stroke="rgba(0,0,0,0)" stroke-miterlimit="10" stroke-width="1"/>
    </g>
    <g id="Delete" transform="translate(14)">
      <rect id="icon_bg-17" data-name="icon_bg" width="14" height="14" fill="#fff" opacity="0"/>
      <path id="Delete-2" data-name="Delete" d="M1.977,12a.522.522,0,0,1-.5-.538V2.489H.5A.521.521,0,0,1,0,1.952a.522.522,0,0,1,.5-.538H3.887V.538A.522.522,0,0,1,4.391,0H7.61a.522.522,0,0,1,.5.538v.876H11.5a.522.522,0,0,1,.5.538.521.521,0,0,1-.5.537h-.972v8.973a.521.521,0,0,1-.5.538Zm.5-1.075H9.517V2.489H2.481ZM4.9,1.414h2.21V1.076H4.9ZM7.54,8.831l-1.53-1.5-1.53,1.5a.549.549,0,1,1-.769-.785L5.225,6.565,3.71,5.081a.55.55,0,0,1,.77-.787l1.531,1.5,1.53-1.5a.551.551,0,0,1,.77.787L6.8,6.563,8.311,8.046a.55.55,0,1,1-.77.785Z" transform="translate(1 1)" fill="#e84a55" stroke="rgba(0,0,0,0)" stroke-miterlimit="10" stroke-width="1"/>
    </g>
    <g id="Edit">
      <rect id="icon_bg-18" data-name="icon_bg" width="14" height="14" fill="#fff" opacity="0"/>
      <path id="Edit-2" data-name="Edit" d="M.5,12a.5.5,0,0,1-.5-.491V1.991A.5.5,0,0,1,.5,1.5H5.786a.492.492,0,1,1,0,.983H1.006v8.535H9.733V7.158a.5.5,0,0,1,1.005,0v4.351a.5.5,0,0,1-.5.491ZM2.149,9.6V7.327L9.52.215a.636.636,0,0,1,.953,0L11.78,1.521a.641.641,0,0,1,.008.959L4.385,9.6Zm1-1.852V8.6h.832L8.9,3.87l-.85-.848ZM8.771,2.327l.851.85L10.844,2l-.851-.851Z" transform="translate(1 1)" fill="#388cff" stroke="rgba(0,0,0,0)" stroke-miterlimit="10" stroke-width="1"/>
    </g>
  </g>
</svg>
