<svg class="tildesm" xmlns="http://www.w3.org/2000/svg" width="6.66" height="5.091" viewBox="0 0 6.66 5.091"><path d="M4.043,4.946a7.62,7.62,0,0,1-.833-.433q-.39-.221-.637-.332a1.349,1.349,0,0,0-.553-.11,1.379,1.379,0,0,0-1.224.7C.739,4.882.66,4.9.558,4.837L.1,4.564a.185.185,0,0,1-.085-.238,2.391,2.391,0,0,1,.774-.96A1.869,1.869,0,0,1,1.918,3a2.038,2.038,0,0,1,.723.119,3.436,3.436,0,0,1,.654.34,5.632,5.632,0,0,0,.782.425,1.863,1.863,0,0,0,.731.136.93.93,0,0,0,.57-.17,2.192,2.192,0,0,0,.467-.51.161.161,0,0,1,.239-.05l.492.323a.141.141,0,0,1,.051.22A2.115,2.115,0,0,1,4.859,5.091,2.082,2.082,0,0,1,4.043,4.946Zm0-3a7.65,7.65,0,0,1-.833-.434q-.39-.22-.637-.331a1.335,1.335,0,0,0-.553-.111,1.378,1.378,0,0,0-1.224.7q-.085.17-.238.067L.1,1.564a.185.185,0,0,1-.085-.238A2.4,2.4,0,0,1,.788.365,1.875,1.875,0,0,1,1.918,0a2.038,2.038,0,0,1,.723.119,3.542,3.542,0,0,1,.654.34,5.538,5.538,0,0,0,.782.425,1.863,1.863,0,0,0,.731.137.93.93,0,0,0,.57-.17A2.192,2.192,0,0,0,5.845.34.161.161,0,0,1,6.083.289l.492.323a.142.142,0,0,1,.051.221A2.115,2.115,0,0,1,4.859,2.092,2.082,2.082,0,0,1,4.043,1.947Z" transform="translate(0)" /></svg>