<svg className="mdper mdper-up" xmlns="http://www.w3.org/2000/svg" width="8.001" height="10"
     viewBox="0 0 8.001 10">
    <g transform="translate(-20 -130)">
        <path className="perline"
              d="M7.368,1.25H.632A.629.629,0,0,1,0,.625.629.629,0,0,1,.632,0H7.368A.629.629,0,0,1,8,.625.629.629,0,0,1,7.368,1.25Z"
              transform="translate(20 134.35)"/>
        <path className="perup"
              d="M4.328,7.684V1.44L6.654,3.8a.613.613,0,0,0,.877,0,.639.639,0,0,0,0-.892L4.152-.522a.372.372,0,0,0-.22-.135.739.739,0,0,0-.438,0,.367.367,0,0,0-.22.135L-.106,2.914a.639.639,0,0,0,0,.892.614.614,0,0,0,.878,0L3.1,1.44V7.684a.616.616,0,1,0,1.233,0Z"
              transform="translate(20.287 131.19)"/>
        <path className="perdown"
              d="M3.385.626V6.87L1.059,4.506A.613.613,0,0,0,.192,4.5l-.01.01a.638.638,0,0,0,0,.893L3.56,8.832a.37.37,0,0,0,.22.135.743.743,0,0,0,.438,0,.37.37,0,0,0,.22-.135L7.818,5.4a.638.638,0,0,0,0-.893A.614.614,0,0,0,6.95,4.5l-.01.01L4.613,6.87V.626a.617.617,0,0,0-1.233,0Z"
              transform="translate(20 130.49)"/>
    </g>
</svg>